<svg width="48" height="48" viewBox="0 0 48 48" fill="none" xmlns="http://www.w3.org/2000/svg">
<path d="M12 0C10.35 0 9 1.35 9 3V45C9 46.65 10.35 48 12 48H42C43.65 48 45 46.65 45 45V12L33 0H12Z" fill="#E2E5E7"/>
<path d="M36 12H45L33 0V9C33 10.65 34.35 12 36 12Z" fill="#B0B7BD"/>
<path d="M45 21L36 12H45V21Z" fill="#CAD1D8"/>
<path d="M39 39C39 39.825 38.325 40.5 37.5 40.5H4.5C3.675 40.5 3 39.825 3 39V24C3 23.175 3.675 22.5 4.5 22.5H37.5C38.325 22.5 39 23.175 39 24V39Z" fill="#7C4919"/>
<path d="M37.5 40.5H9V42H37.5C38.325 42 39 41.325 39 40.5V39C39 39.825 38.325 40.5 37.5 40.5Z" fill="#CAD1D8"/>
<path d="M9.94714 35H6.97114V26.996H9.94714C11.1871 26.996 12.1951 27.368 12.9711 28.112C13.7471 28.856 14.1351 29.82 14.1351 31.004C14.1351 32.18 13.7471 33.14 12.9711 33.884C12.2031 34.628 11.1951 35 9.94714 35ZM9.94714 33.764C10.7871 33.764 11.4551 33.5 11.9511 32.972C12.4471 32.444 12.6951 31.788 12.6951 31.004C12.6951 30.196 12.4511 29.532 11.9631 29.012C11.4831 28.492 10.8111 28.232 9.94714 28.232H8.37514V33.764H9.94714ZM16.6243 35.144C15.7363 35.144 15.0283 34.864 14.5003 34.304L15.1483 33.236C15.5563 33.676 16.0123 33.896 16.5163 33.896C16.9483 33.896 17.2883 33.764 17.5363 33.5C17.7923 33.236 17.9203 32.884 17.9203 32.444V26.996H19.3243V32.468C19.3243 33.348 19.0763 34.016 18.5803 34.472C18.0843 34.92 17.4323 35.144 16.6243 35.144ZM25.0896 35H23.3376L20.1936 26.996H21.7896L24.2136 33.476L26.6376 26.996H28.2336L25.0896 35ZM32.5759 35.144C31.4399 35.144 30.5759 34.848 29.9839 34.256C29.3999 33.664 29.1079 32.86 29.1079 31.844V26.996H30.5239V31.796C30.5239 32.444 30.6999 32.956 31.0519 33.332C31.4119 33.708 31.9199 33.896 32.5759 33.896C33.2319 33.896 33.7359 33.708 34.0879 33.332C34.4399 32.956 34.6159 32.444 34.6159 31.796V26.996H36.0319V31.832C36.0319 32.856 35.7359 33.664 35.1439 34.256C34.5599 34.848 33.7039 35.144 32.5759 35.144Z" fill="white"/>
</svg>
