<svg width="48" height="48" viewBox="0 0 48 48" fill="none" xmlns="http://www.w3.org/2000/svg">
<path d="M47.988 21.94C47.982 21.849 47.965 21.761 47.934 21.674C47.923 21.642 47.915 21.611 47.901 21.58C47.853 21.477 47.793 21.381 47.71 21.297C47.709 21.295 47.708 21.294 47.706 21.292L42 15.586V10C42 9.979 41.989 9.96 41.988 9.939C41.982 9.85 41.965 9.764 41.936 9.68C41.925 9.648 41.917 9.618 41.903 9.587C41.854 9.481 41.793 9.38 41.707 9.294L32.707 0.294C32.622 0.209 32.521 0.148 32.416 0.099C32.384 0.084 32.351 0.075 32.317 0.064C32.236 0.037 32.153 0.02 32.068 0.014C32.044 0.012 32.023 0 32 0H7C6.447 0 6 0.448 6 1V15.586L0.294 21.292C0.292 21.294 0.292 21.295 0.29 21.297C0.207 21.38 0.147 21.477 0.099 21.58C0.085 21.61 0.077 21.642 0.066 21.674C0.036 21.76 0.018 21.848 0.012 21.94C0.011 21.961 0 21.979 0 22V41C0 41.552 0.447 42 1 42H6V47C6 47.552 6.447 48 7 48H41C41.553 48 42 47.552 42 47V42H47C47.553 42 48 41.552 48 41V22C48 21.979 47.989 21.961 47.988 21.94ZM44.586 21H42V18.414L44.586 21ZM38.586 9H33V3.414L38.586 9ZM8 2H31V10C31 10.552 31.447 11 32 11H40V16V21H8V16V2ZM6 18.414V21H3.414L6 18.414ZM40 46H8V42H40V46ZM46 40H2V23H7H41H46V40Z" fill="black"/>
<path d="M13.2189 36.1948V27.6636H15.6271C16.3693 27.6636 17.0256 27.8276 17.5959 28.1558C18.1662 28.4839 18.6056 28.9507 18.9142 29.5562C19.2267 30.1616 19.3849 30.8569 19.3889 31.6421V32.187C19.3889 32.9917 19.2326 33.6968 18.9201 34.3022C18.6115 34.9077 18.1681 35.3726 17.59 35.6968C17.0158 36.021 16.3459 36.187 15.5803 36.1948H13.2189ZM14.3439 28.5894V35.2749H15.5275C16.3947 35.2749 17.0685 35.0054 17.549 34.4663C18.0334 33.9272 18.2756 33.1597 18.2756 32.1636V31.6655C18.2756 30.6968 18.0471 29.9448 17.59 29.4097C17.1369 28.8706 16.4924 28.5972 15.6564 28.5894H14.3439ZM27.6564 32.2046C27.6564 33.0405 27.5158 33.771 27.2346 34.396C26.9533 35.0171 26.5549 35.4917 26.0392 35.8198C25.5236 36.1479 24.9221 36.312 24.2346 36.312C23.5627 36.312 22.967 36.1479 22.4474 35.8198C21.9279 35.4878 21.5236 35.0171 21.2346 34.4077C20.9494 33.7944 20.8029 33.0854 20.7951 32.2808V31.6655C20.7951 30.8452 20.9377 30.1206 21.2228 29.4917C21.508 28.8628 21.9103 28.3823 22.4299 28.0503C22.9533 27.7144 23.551 27.5464 24.2228 27.5464C24.9064 27.5464 25.508 27.7124 26.0275 28.0444C26.551 28.3726 26.9533 28.8511 27.2346 29.48C27.5158 30.105 27.6564 30.8335 27.6564 31.6655V32.2046ZM26.5373 31.6538C26.5373 30.6421 26.3342 29.8667 25.9279 29.3276C25.5217 28.7847 24.9533 28.5132 24.2228 28.5132C23.5119 28.5132 22.9514 28.7847 22.5412 29.3276C22.1349 29.8667 21.926 30.6167 21.9142 31.5776V32.2046C21.9142 33.1851 22.1193 33.9565 22.5295 34.519C22.9435 35.0776 23.5119 35.3569 24.2346 35.3569C24.9611 35.3569 25.5236 35.0933 25.9221 34.5659C26.3205 34.0347 26.5256 33.2749 26.5373 32.2866V31.6538ZM35.6193 33.4878C35.5139 34.3901 35.1799 35.0874 34.6174 35.5796C34.0588 36.0679 33.3146 36.312 32.3849 36.312C31.3771 36.312 30.5685 35.9507 29.9592 35.228C29.3537 34.5054 29.051 33.5386 29.051 32.3276V31.5073C29.051 30.7144 29.1916 30.0171 29.4728 29.4155C29.758 28.814 30.1603 28.353 30.6799 28.0327C31.1994 27.7085 31.801 27.5464 32.4846 27.5464C33.3908 27.5464 34.1174 27.8003 34.6642 28.3081C35.2111 28.812 35.5295 29.5112 35.6193 30.4058H34.4885C34.3908 29.7261 34.1779 29.2339 33.8498 28.9292C33.5256 28.6245 33.0705 28.4722 32.4846 28.4722C31.7658 28.4722 31.2014 28.7378 30.7912 29.269C30.3849 29.8003 30.1818 30.5562 30.1818 31.5366V32.3628C30.1818 33.2886 30.3752 34.0249 30.7619 34.5718C31.1486 35.1187 31.6896 35.3921 32.3849 35.3921C33.0099 35.3921 33.4885 35.2515 33.8205 34.9702C34.1564 34.6851 34.3791 34.1909 34.4885 33.4878H35.6193Z" fill="black"/>
</svg>
