<svg width="48" height="48" viewBox="0 0 48 48" fill="none" xmlns="http://www.w3.org/2000/svg">
<path d="M12 0C10.35 0 9 1.35 9 3V45C9 46.65 10.35 48 12 48H42C43.65 48 45 46.65 45 45V12L33 0H12Z" fill="#E2E5E7"/>
<path d="M36 12H45L33 0V9C33 10.65 34.35 12 36 12Z" fill="#B0B7BD"/>
<path d="M45 21L36 12H45V21Z" fill="#CAD1D8"/>
<path d="M39 39C39 39.825 38.325 40.5 37.5 40.5H4.5C3.675 40.5 3 39.825 3 39V24C3 23.175 3.675 22.5 4.5 22.5H37.5C38.325 22.5 39 23.175 39 24V39Z" fill="#50BEE8"/>
<path d="M37.5 40.5H9V42H37.5C38.325 42 39 41.325 39 40.5V39C39 39.825 38.325 40.5 37.5 40.5Z" fill="#CAD1D8"/>
<path d="M11.8905 35H8.9145V26.996H11.8905C13.1305 26.996 14.1385 27.368 14.9145 28.112C15.6905 28.856 16.0785 29.82 16.0785 31.004C16.0785 32.18 15.6905 33.14 14.9145 33.884C14.1465 34.628 13.1385 35 11.8905 35ZM11.8905 33.764C12.7305 33.764 13.3985 33.5 13.8945 32.972C14.3905 32.444 14.6385 31.788 14.6385 31.004C14.6385 30.196 14.3945 29.532 13.9065 29.012C13.4265 28.492 12.7545 28.232 11.8905 28.232H10.3185V33.764H11.8905ZM24.106 33.98C23.338 34.756 22.358 35.144 21.166 35.144C19.974 35.144 18.994 34.756 18.226 33.98C17.458 33.196 17.074 32.204 17.074 31.004C17.074 29.804 17.458 28.816 18.226 28.04C18.994 27.256 19.974 26.864 21.166 26.864C22.358 26.864 23.338 27.256 24.106 28.04C24.874 28.816 25.258 29.804 25.258 31.004C25.258 32.204 24.874 33.196 24.106 33.98ZM21.166 33.896C21.958 33.896 22.598 33.624 23.086 33.08C23.574 32.528 23.818 31.836 23.818 31.004C23.818 30.164 23.574 29.472 23.086 28.928C22.598 28.384 21.958 28.112 21.166 28.112C20.366 28.112 19.722 28.384 19.234 28.928C18.754 29.472 18.514 30.164 18.514 31.004C18.514 31.844 18.754 32.536 19.234 33.08C19.722 33.624 20.366 33.896 21.166 33.896ZM30.4498 35.144C29.2498 35.144 28.2498 34.76 27.4498 33.992C26.6498 33.216 26.2498 32.22 26.2498 31.004C26.2498 29.788 26.6498 28.796 27.4498 28.028C28.2498 27.252 29.2498 26.864 30.4498 26.864C31.8418 26.864 32.9138 27.464 33.6658 28.664L32.4658 29.276C32.2658 28.932 31.9818 28.652 31.6138 28.436C31.2538 28.22 30.8658 28.112 30.4498 28.112C29.6578 28.112 28.9978 28.384 28.4698 28.928C27.9498 29.472 27.6898 30.164 27.6898 31.004C27.6898 31.844 27.9498 32.536 28.4698 33.08C28.9978 33.624 29.6578 33.896 30.4498 33.896C30.8738 33.896 31.2658 33.788 31.6258 33.572C31.9858 33.356 32.2658 33.076 32.4658 32.732L33.6658 33.344C32.8978 34.544 31.8258 35.144 30.4498 35.144Z" fill="white"/>
</svg>
