<svg width="48" height="48" viewBox="0 0 48 48" fill="none" xmlns="http://www.w3.org/2000/svg">
<path d="M12 0C10.35 0 9 1.35 9 3V45C9 46.65 10.35 48 12 48H42C43.65 48 45 46.65 45 45V12L33 0H12Z" fill="#E2E5E7"/>
<path d="M36 12H45L33 0V9C33 10.65 34.35 12 36 12Z" fill="#B0B7BD"/>
<path d="M45 21L36 12H45V21Z" fill="#CAD1D8"/>
<path d="M39 39C39 39.825 38.325 40.5 37.5 40.5H4.5C3.675 40.5 3 39.825 3 39V24C3 23.175 3.675 22.5 4.5 22.5H37.5C38.325 22.5 39 23.175 39 24V39Z" fill="#3970DB"/>
<path d="M37.5 40.5H9V42H37.5C38.325 42 39 41.325 39 40.5V39C39 39.825 38.325 40.5 37.5 40.5Z" fill="#CAD1D8"/>
<path d="M7.9237 35H4.9477V26.996H7.9237C9.1637 26.996 10.1717 27.368 10.9477 28.112C11.7237 28.856 12.1117 29.82 12.1117 31.004C12.1117 32.18 11.7237 33.14 10.9477 33.884C10.1797 34.628 9.1717 35 7.9237 35ZM7.9237 33.764C8.7637 33.764 9.4317 33.5 9.9277 32.972C10.4237 32.444 10.6717 31.788 10.6717 31.004C10.6717 30.196 10.4277 29.532 9.9397 29.012C9.4597 28.492 8.7877 28.232 7.9237 28.232H6.3517V33.764H7.9237ZM20.1392 33.98C19.3712 34.756 18.3912 35.144 17.1992 35.144C16.0072 35.144 15.0272 34.756 14.2592 33.98C13.4912 33.196 13.1072 32.204 13.1072 31.004C13.1072 29.804 13.4912 28.816 14.2592 28.04C15.0272 27.256 16.0072 26.864 17.1992 26.864C18.3912 26.864 19.3712 27.256 20.1392 28.04C20.9072 28.816 21.2912 29.804 21.2912 31.004C21.2912 32.204 20.9072 33.196 20.1392 33.98ZM17.1992 33.896C17.9912 33.896 18.6312 33.624 19.1192 33.08C19.6072 32.528 19.8512 31.836 19.8512 31.004C19.8512 30.164 19.6072 29.472 19.1192 28.928C18.6312 28.384 17.9912 28.112 17.1992 28.112C16.3992 28.112 15.7552 28.384 15.2672 28.928C14.7872 29.472 14.5472 30.164 14.5472 31.004C14.5472 31.844 14.7872 32.536 15.2672 33.08C15.7552 33.624 16.3992 33.896 17.1992 33.896ZM26.483 35.144C25.283 35.144 24.283 34.76 23.483 33.992C22.683 33.216 22.283 32.22 22.283 31.004C22.283 29.788 22.683 28.796 23.483 28.028C24.283 27.252 25.283 26.864 26.483 26.864C27.875 26.864 28.947 27.464 29.699 28.664L28.499 29.276C28.299 28.932 28.015 28.652 27.647 28.436C27.287 28.22 26.899 28.112 26.483 28.112C25.691 28.112 25.031 28.384 24.503 28.928C23.983 29.472 23.723 30.164 23.723 31.004C23.723 31.844 23.983 32.536 24.503 33.08C25.031 33.624 25.691 33.896 26.483 33.896C26.907 33.896 27.299 33.788 27.659 33.572C28.019 33.356 28.299 33.076 28.499 32.732L29.699 33.344C28.931 34.544 27.859 35.144 26.483 35.144ZM37.8547 35H36.1747L33.9307 31.868L31.6867 35H30.0067L33.0067 30.896L30.1867 26.996H31.8667L33.9307 29.936L35.9827 26.996H37.6747L34.8667 30.884L37.8547 35Z" fill="white"/>
</svg>
