<svg width="48" height="48" viewBox="0 0 48 48" fill="none" xmlns="http://www.w3.org/2000/svg">
<path d="M12 0C10.35 0 9 1.35 9 3V45C9 46.65 10.35 48 12 48H42C43.65 48 45 46.65 45 45V12L33 0H12Z" fill="#E2E5E7"/>
<path d="M36 12H45L33 0V9C33 10.65 34.35 12 36 12Z" fill="#B0B7BD"/>
<path d="M45 21L36 12H45V21Z" fill="#CAD1D8"/>
<path d="M39 39C39 39.825 38.325 40.5 37.5 40.5H4.5C3.675 40.5 3 39.825 3 39V24C3 23.175 3.675 22.5 4.5 22.5H37.5C38.325 22.5 39 23.175 39 24V39Z" fill="#DB791E"/>
<path d="M37.5 40.5H9V42H37.5C38.325 42 39 41.325 39 40.5V39C39 39.825 38.325 40.5 37.5 40.5Z" fill="#CAD1D8"/>
<path d="M12.5196 35H7.03559V26.996H12.5196V28.232H8.43959V30.308H12.4356V31.544H8.43959V33.764H12.5196V35ZM15.3654 35H13.9614V26.996H17.4774C18.2854 26.996 18.9214 27.236 19.3854 27.716C19.8574 28.196 20.0934 28.792 20.0934 29.504C20.0934 30.208 19.8574 30.804 19.3854 31.292C18.9214 31.772 18.2854 32.012 17.4774 32.012H15.3654V35ZM17.2854 30.776C17.6854 30.776 18.0134 30.66 18.2694 30.428C18.5254 30.196 18.6534 29.888 18.6534 29.504C18.6534 29.12 18.5254 28.812 18.2694 28.58C18.0134 28.348 17.6854 28.232 17.2854 28.232H15.3654V30.776H17.2854ZM24.7302 35.144C23.5942 35.144 22.7302 34.848 22.1382 34.256C21.5542 33.664 21.2622 32.86 21.2622 31.844V26.996H22.6782V31.796C22.6782 32.444 22.8542 32.956 23.2062 33.332C23.5662 33.708 24.0742 33.896 24.7302 33.896C25.3862 33.896 25.8902 33.708 26.2422 33.332C26.5942 32.956 26.7702 32.444 26.7702 31.796V26.996H28.1862V31.832C28.1862 32.856 27.8902 33.664 27.2982 34.256C26.7142 34.848 25.8582 35.144 24.7302 35.144ZM33.9312 35H29.8872V26.996H33.8232C34.5352 26.996 35.0912 27.192 35.4912 27.584C35.8992 27.968 36.1032 28.452 36.1032 29.036C36.1032 29.516 35.9672 29.924 35.6952 30.26C35.4312 30.588 35.1032 30.792 34.7112 30.872C35.1432 30.936 35.5072 31.16 35.8032 31.544C36.1072 31.92 36.2592 32.352 36.2592 32.84C36.2592 33.48 36.0512 34 35.6352 34.4C35.2272 34.8 34.6592 35 33.9312 35ZM33.5352 30.308C33.8872 30.308 34.1632 30.212 34.3632 30.02C34.5632 29.828 34.6632 29.58 34.6632 29.276C34.6632 28.964 34.5632 28.712 34.3632 28.52C34.1632 28.328 33.8872 28.232 33.5352 28.232H31.2912V30.308H33.5352ZM33.5952 33.764C33.9792 33.764 34.2792 33.668 34.4952 33.476C34.7112 33.276 34.8192 33 34.8192 32.648C34.8192 32.336 34.7112 32.076 34.4952 31.868C34.2792 31.652 33.9792 31.544 33.5952 31.544H31.2912V33.764H33.5952Z" fill="white"/>
</svg>
