<svg width="48" height="48" viewBox="0 0 48 48" fill="none" xmlns="http://www.w3.org/2000/svg">
<path d="M12 0C10.35 0 9 1.35 9 3V45C9 46.65 10.35 48 12 48H42C43.65 48 45 46.65 45 45V12L33 0H12Z" fill="#E2E5E7"/>
<path d="M36 12H45L33 0V9C33 10.65 34.35 12 36 12Z" fill="#B0B7BD"/>
<path d="M45 21L36 12H45V21Z" fill="#CAD1D8"/>
<path d="M39 39C39 39.825 38.325 40.5 37.5 40.5H4.5C3.675 40.5 3 39.825 3 39V24C3 23.175 3.675 22.5 4.5 22.5H37.5C38.325 22.5 39 23.175 39 24V39Z" fill="#556A76"/>
<path d="M37.5 40.5H9V42H37.5C38.325 42 39 41.325 39 40.5V39C39 39.825 38.325 40.5 37.5 40.5Z" fill="#CAD1D8"/>
<path d="M12.4279 35H11.0239V26.996H16.5079V28.232H12.4279V30.308H16.4239V31.544H12.4279V35ZM21.8062 35H17.7622V26.996H21.6982C22.4102 26.996 22.9662 27.192 23.3662 27.584C23.7742 27.968 23.9782 28.452 23.9782 29.036C23.9782 29.516 23.8422 29.924 23.5702 30.26C23.3062 30.588 22.9782 30.792 22.5862 30.872C23.0182 30.936 23.3822 31.16 23.6782 31.544C23.9822 31.92 24.1342 32.352 24.1342 32.84C24.1342 33.48 23.9262 34 23.5102 34.4C23.1022 34.8 22.5342 35 21.8062 35ZM21.4102 30.308C21.7622 30.308 22.0382 30.212 22.2382 30.02C22.4382 29.828 22.5382 29.58 22.5382 29.276C22.5382 28.964 22.4382 28.712 22.2382 28.52C22.0382 28.328 21.7622 28.232 21.4102 28.232H19.1662V30.308H21.4102ZM21.4702 33.764C21.8542 33.764 22.1542 33.668 22.3702 33.476C22.5862 33.276 22.6942 33 22.6942 32.648C22.6942 32.336 22.5862 32.076 22.3702 31.868C22.1542 31.652 21.8542 31.544 21.4702 31.544H19.1662V33.764H21.4702ZM31.0874 35H25.2914V33.896C26.9634 32.632 28.0994 31.696 28.6994 31.088C29.3074 30.472 29.6114 29.892 29.6114 29.348C29.6114 28.956 29.4674 28.656 29.1794 28.448C28.8994 28.232 28.5594 28.124 28.1594 28.124C27.2794 28.124 26.5594 28.444 25.9994 29.084L25.1834 28.16C25.5274 27.744 25.9594 27.428 26.4794 27.212C27.0074 26.988 27.5594 26.876 28.1354 26.876C28.9514 26.876 29.6394 27.096 30.1994 27.536C30.7594 27.976 31.0394 28.58 31.0394 29.348C31.0394 30.036 30.7514 30.72 30.1754 31.4C29.5994 32.08 28.7194 32.868 27.5354 33.764H31.0874V35Z" fill="white"/>
</svg>
