<svg width="48" height="48" viewBox="0 0 48 48" fill="none" xmlns="http://www.w3.org/2000/svg">
<path d="M12 0C10.35 0 9 1.35 9 3V45C9 46.65 10.35 48 12 48H42C43.65 48 45 46.65 45 45V12L33 0H12Z" fill="#E2E5E7"/>
<path d="M36 12H45L33 0V9C33 10.65 34.35 12 36 12Z" fill="#B0B7BD"/>
<path d="M45 21L36 12H45V21Z" fill="#CAD1D8"/>
<path d="M39 39C39 39.825 38.325 40.5 37.5 40.5H4.5C3.675 40.5 3 39.825 3 39V24C3 23.175 3.675 22.5 4.5 22.5H37.5C38.325 22.5 39 23.175 39 24V39Z" fill="#136B75"/>
<path d="M37.5 40.5H9V42H37.5C38.325 42 39 41.325 39 40.5V39C39 39.825 38.325 40.5 37.5 40.5Z" fill="#CAD1D8"/>
<path d="M12.3802 35.144C11.4922 35.144 10.7842 34.864 10.2562 34.304L10.9042 33.236C11.3122 33.676 11.7682 33.896 12.2722 33.896C12.7042 33.896 13.0442 33.764 13.2922 33.5C13.5482 33.236 13.6762 32.884 13.6762 32.444V26.996H15.0802V32.468C15.0802 33.348 14.8322 34.016 14.3362 34.472C13.8402 34.92 13.1882 35.144 12.3802 35.144ZM18.1935 35H16.7895V26.996H20.3055C21.1135 26.996 21.7495 27.236 22.2135 27.716C22.6855 28.196 22.9215 28.792 22.9215 29.504C22.9215 30.208 22.6855 30.804 22.2135 31.292C21.7495 31.772 21.1135 32.012 20.3055 32.012H18.1935V35ZM20.1135 30.776C20.5135 30.776 20.8415 30.66 21.0975 30.428C21.3535 30.196 21.4815 29.888 21.4815 29.504C21.4815 29.12 21.3535 28.812 21.0975 28.58C20.8415 28.348 20.5135 28.232 20.1135 28.232H18.1935V30.776H20.1135ZM27.9303 35.156C26.7463 35.156 25.7503 34.772 24.9423 34.004C24.1343 33.236 23.7303 32.236 23.7303 31.004C23.7303 29.772 24.1343 28.776 24.9423 28.016C25.7503 27.248 26.7463 26.864 27.9303 26.864C29.3063 26.864 30.3823 27.42 31.1583 28.532L30.0063 29.18C29.7823 28.868 29.4863 28.612 29.1183 28.412C28.7583 28.212 28.3623 28.112 27.9303 28.112C27.1383 28.112 26.4783 28.384 25.9503 28.928C25.4303 29.472 25.1703 30.164 25.1703 31.004C25.1703 31.844 25.4303 32.54 25.9503 33.092C26.4783 33.636 27.1383 33.908 27.9303 33.908C28.3063 33.908 28.6623 33.836 28.9983 33.692C29.3423 33.548 29.6183 33.38 29.8263 33.188V31.94H27.4383V30.704H31.2303V33.704C30.3583 34.672 29.2583 35.156 27.9303 35.156Z" fill="white"/>
</svg>
