<svg width="49" height="49" viewBox="0 0 49 49" fill="none" xmlns="http://www.w3.org/2000/svg">
<path d="M48.3191 22.1348C48.3131 22.0438 48.2961 21.9558 48.2651 21.8688C48.2541 21.8368 48.2461 21.8058 48.2321 21.7748C48.1841 21.6718 48.1241 21.5758 48.0411 21.4918C48.0401 21.4898 48.0391 21.4888 48.0371 21.4868L42.3311 15.7808V10.1948C42.3311 10.1738 42.3201 10.1548 42.3191 10.1338C42.3131 10.0448 42.2961 9.95882 42.2671 9.87482C42.2561 9.84282 42.2481 9.81282 42.2341 9.78182C42.1851 9.67582 42.1241 9.57482 42.0381 9.48882L33.0381 0.488824C32.9531 0.403824 32.8521 0.342824 32.7471 0.293824C32.7151 0.278824 32.6821 0.269824 32.6481 0.258824C32.5671 0.231824 32.4841 0.214824 32.3991 0.208824C32.3751 0.206824 32.3541 0.194824 32.3311 0.194824H7.33105C6.77805 0.194824 6.33105 0.642824 6.33105 1.19482V15.7808L0.625055 21.4868C0.623055 21.4888 0.623055 21.4898 0.621055 21.4918C0.538055 21.5748 0.478055 21.6718 0.430055 21.7748C0.416055 21.8048 0.408055 21.8368 0.397055 21.8688C0.367055 21.9548 0.349055 22.0428 0.343055 22.1348C0.342055 22.1558 0.331055 22.1738 0.331055 22.1948V41.1948C0.331055 41.7468 0.778055 42.1948 1.33105 42.1948H6.33105V47.1948C6.33105 47.7468 6.77805 48.1948 7.33105 48.1948H41.3311C41.8841 48.1948 42.3311 47.7468 42.3311 47.1948V42.1948H47.3311C47.8841 42.1948 48.3311 41.7468 48.3311 41.1948V22.1948C48.3311 22.1738 48.3201 22.1558 48.3191 22.1348ZM44.9171 21.1948H42.3311V18.6088L44.9171 21.1948ZM38.9171 9.19482H33.3311V3.60882L38.9171 9.19482ZM8.33105 2.19482H31.3311V10.1948C31.3311 10.7468 31.7781 11.1948 32.3311 11.1948H40.3311V16.1948V21.1948H8.33105V16.1948V2.19482ZM6.33105 18.6088V21.1948H3.74505L6.33105 18.6088ZM40.3311 46.1948H8.33105V42.1948H40.3311V46.1948ZM46.3311 40.1948H2.33105V23.1948H7.33105H41.3311H46.3311V40.1948Z" fill="black"/>
<path d="M17.9094 27.8584H19.0402V33.8994C19.0402 34.7158 18.7941 35.3545 18.3019 35.8154C17.8137 36.2764 17.1613 36.5068 16.3449 36.5068C15.4973 36.5068 14.8371 36.29 14.3644 35.8564C13.8918 35.4229 13.6555 34.8154 13.6555 34.0342H14.7805C14.7805 34.5225 14.9133 34.9033 15.1789 35.1768C15.4484 35.4502 15.8371 35.5869 16.3449 35.5869C16.8098 35.5869 17.1848 35.4404 17.4699 35.1475C17.759 34.8545 17.9055 34.4443 17.9094 33.917V27.8584ZM22.0812 33.0498V36.3896H20.9562V27.8584H24.1027C25.0363 27.8584 25.7668 28.0967 26.2941 28.5732C26.8254 29.0498 27.091 29.6807 27.091 30.4658C27.091 31.2939 26.8312 31.9326 26.3117 32.3818C25.7961 32.8271 25.0558 33.0498 24.091 33.0498H22.0812ZM22.0812 32.1299H24.1027C24.7043 32.1299 25.1652 31.9893 25.4855 31.708C25.8058 31.4229 25.966 31.0127 25.966 30.4775C25.966 29.9697 25.8058 29.5635 25.4855 29.2588C25.1652 28.9541 24.7258 28.7959 24.1672 28.7842H22.0812V32.1299ZM34.8254 35.2705C34.5363 35.6846 34.132 35.9951 33.6125 36.2021C33.0969 36.4053 32.4953 36.5068 31.8078 36.5068C31.1125 36.5068 30.4953 36.3447 29.9562 36.0205C29.4172 35.6924 28.9992 35.2275 28.7023 34.626C28.4094 34.0244 28.259 33.3271 28.2512 32.5342V31.79C28.2512 30.5049 28.55 29.5088 29.1476 28.8018C29.7492 28.0947 30.593 27.7412 31.6789 27.7412C32.5695 27.7412 33.2863 27.9697 33.8293 28.4268C34.3723 28.8799 34.7043 29.5244 34.8254 30.3604H33.7004C33.4894 29.2314 32.8176 28.667 31.6848 28.667C30.9308 28.667 30.3586 28.9326 29.968 29.4639C29.5812 29.9912 29.3859 30.7568 29.382 31.7607V32.458C29.382 33.415 29.6008 34.1768 30.0383 34.7432C30.4758 35.3057 31.0676 35.5869 31.8137 35.5869C32.2355 35.5869 32.6047 35.54 32.9211 35.4463C33.2375 35.3525 33.4992 35.1943 33.7062 34.9717V33.0557H31.7316V32.1416H34.8254V35.2705Z" fill="black"/>
</svg>
