<svg width="48" height="48" viewBox="0 0 48 48" fill="none" xmlns="http://www.w3.org/2000/svg">
<path d="M12 0C10.35 0 9 1.35 9 3V45C9 46.65 10.35 48 12 48H42C43.65 48 45 46.65 45 45V12L33 0H12Z" fill="#E2E5E7"/>
<path d="M36 12H45L33 0V9C33 10.65 34.35 12 36 12Z" fill="#B0B7BD"/>
<path d="M45 21L36 12H45V21Z" fill="#CAD1D8"/>
<path d="M39 39C39 39.825 38.325 40.5 37.5 40.5H4.5C3.675 40.5 3 39.825 3 39V24C3 23.175 3.675 22.5 4.5 22.5H37.5C38.325 22.5 39 23.175 39 24V39Z" fill="#F15642"/>
<path d="M37.5 40.5H9V42H37.5C38.325 42 39 41.325 39 40.5V39C39 39.825 38.325 40.5 37.5 40.5Z" fill="#CAD1D8"/>
<path d="M12.4767 35H11.0727V26.996H14.5887C15.3967 26.996 16.0327 27.236 16.4967 27.716C16.9687 28.196 17.2047 28.792 17.2047 29.504C17.2047 30.208 16.9687 30.804 16.4967 31.292C16.0327 31.772 15.3967 32.012 14.5887 32.012H12.4767V35ZM14.3967 30.776C14.7967 30.776 15.1247 30.66 15.3807 30.428C15.6367 30.196 15.7647 29.888 15.7647 29.504C15.7647 29.12 15.6367 28.812 15.3807 28.58C15.1247 28.348 14.7967 28.232 14.3967 28.232H12.4767V30.776H14.3967ZM21.3495 35H18.3735V26.996H21.3495C22.5895 26.996 23.5975 27.368 24.3735 28.112C25.1495 28.856 25.5375 29.82 25.5375 31.004C25.5375 32.18 25.1495 33.14 24.3735 33.884C23.6055 34.628 22.5975 35 21.3495 35ZM21.3495 33.764C22.1895 33.764 22.8575 33.5 23.3535 32.972C23.8495 32.444 24.0975 31.788 24.0975 31.004C24.0975 30.196 23.8535 29.532 23.3655 29.012C22.8855 28.492 22.2135 28.232 21.3495 28.232H19.7775V33.764H21.3495ZM28.297 35H26.893V26.996H32.377V28.232H28.297V30.308H32.293V31.544H28.297V35Z" fill="white"/>
</svg>
