<svg width="49" height="49" viewBox="0 0 49 49" fill="none" xmlns="http://www.w3.org/2000/svg">
<path d="M48.4582 21.9791C48.4522 21.8881 48.4352 21.8001 48.4042 21.7131C48.3932 21.6811 48.3852 21.6501 48.3712 21.6191C48.3232 21.5161 48.2632 21.4201 48.1802 21.3361C48.1792 21.3341 48.1782 21.3331 48.1762 21.3311L42.4702 15.6251V10.0391C42.4702 10.0181 42.4592 9.99906 42.4582 9.97806C42.4522 9.88906 42.4352 9.80306 42.4062 9.71906C42.3952 9.68706 42.3872 9.65706 42.3732 9.62606C42.3242 9.52006 42.2632 9.41906 42.1772 9.33306L33.1772 0.333062C33.0922 0.248062 32.9912 0.187063 32.8862 0.138062C32.8542 0.123062 32.8212 0.114063 32.7872 0.103063C32.7062 0.0760625 32.6232 0.0590625 32.5382 0.0530625C32.5142 0.0510625 32.4932 0.0390625 32.4702 0.0390625H7.47021C6.91721 0.0390625 6.47021 0.487063 6.47021 1.03906V15.6251L0.764215 21.3311C0.762215 21.3331 0.762215 21.3341 0.760215 21.3361C0.677215 21.4191 0.617215 21.5161 0.569215 21.6191C0.555215 21.6491 0.547215 21.6811 0.536215 21.7131C0.506215 21.7991 0.488215 21.8871 0.482215 21.9791C0.481215 22.0001 0.470215 22.0181 0.470215 22.0391V41.0391C0.470215 41.5911 0.917215 42.0391 1.47021 42.0391H6.47021V47.0391C6.47021 47.5911 6.91721 48.0391 7.47021 48.0391H41.4702C42.0232 48.0391 42.4702 47.5911 42.4702 47.0391V42.0391H47.4702C48.0232 42.0391 48.4702 41.5911 48.4702 41.0391V22.0391C48.4702 22.0181 48.4592 22.0001 48.4582 21.9791ZM45.0562 21.0391H42.4702V18.4531L45.0562 21.0391ZM39.0562 9.03906H33.4702V3.45306L39.0562 9.03906ZM8.47021 2.03906H31.4702V10.0391C31.4702 10.5911 31.9172 11.0391 32.4702 11.0391H40.4702V16.0391V21.0391H8.47021V16.0391V2.03906ZM6.47021 18.4531V21.0391H3.88421L6.47021 18.4531ZM40.4702 46.0391H8.47021V42.0391H40.4702V46.0391ZM46.4702 40.0391H2.47021V23.0391H7.47021H41.4702H46.4702V40.0391Z" fill="black"/>
<path d="M15.7458 32.894V36.2339H14.6208V27.7026H17.7673C18.7009 27.7026 19.4313 27.9409 19.9587 28.4175C20.4899 28.894 20.7556 29.5249 20.7556 30.3101C20.7556 31.1382 20.4958 31.7769 19.9763 32.2261C19.4606 32.6714 18.7204 32.894 17.7556 32.894H15.7458ZM15.7458 31.9741H17.7673C18.3688 31.9741 18.8298 31.8335 19.1501 31.5522C19.4704 31.2671 19.6306 30.8569 19.6306 30.3218C19.6306 29.814 19.4704 29.4077 19.1501 29.103C18.8298 28.7983 18.3903 28.6401 17.8317 28.6284H15.7458V31.9741ZM22.1911 36.2339V27.7026H24.5993C25.3415 27.7026 25.9977 27.8667 26.5681 28.1948C27.1384 28.5229 27.5778 28.9897 27.8864 29.5952C28.1989 30.2007 28.3571 30.896 28.361 31.6812V32.2261C28.361 33.0308 28.2048 33.7358 27.8923 34.3413C27.5837 34.9468 27.1403 35.4116 26.5622 35.7358C25.988 36.0601 25.3181 36.2261 24.5524 36.2339H22.1911ZM23.3161 28.6284V35.314H24.4997C25.3669 35.314 26.0407 35.0444 26.5212 34.5054C27.0056 33.9663 27.2477 33.1987 27.2477 32.2026V31.7046C27.2477 30.7358 27.0192 29.9839 26.5622 29.4487C26.1091 28.9097 25.4645 28.6362 24.6286 28.6284H23.3161ZM34.7712 32.4663H31.1911V36.2339H30.0661V27.7026H35.3513V28.6284H31.1911V31.5464H34.7712V32.4663Z" fill="black"/>
</svg>
