<svg width="49" height="49" viewBox="0 0 49 49" fill="none" xmlns="http://www.w3.org/2000/svg">
<path d="M48.4987 22.3516C48.4927 22.2606 48.4757 22.1726 48.4447 22.0856C48.4337 22.0536 48.4257 22.0226 48.4117 21.9916C48.3637 21.8886 48.3037 21.7926 48.2207 21.7086C48.2197 21.7066 48.2187 21.7056 48.2167 21.7036L42.5107 15.9976V10.4116C42.5107 10.3906 42.4997 10.3716 42.4987 10.3506C42.4927 10.2616 42.4757 10.1756 42.4467 10.0916C42.4357 10.0596 42.4277 10.0296 42.4137 9.99862C42.3647 9.89262 42.3037 9.79162 42.2177 9.70562L33.2177 0.705621C33.1327 0.620621 33.0317 0.559621 32.9267 0.510621C32.8947 0.495621 32.8617 0.486621 32.8277 0.475621C32.7467 0.448621 32.6637 0.431621 32.5787 0.425621C32.5547 0.423621 32.5337 0.411621 32.5107 0.411621H7.51074C6.95774 0.411621 6.51074 0.859621 6.51074 1.41162V15.9976L0.804742 21.7036C0.802742 21.7056 0.802742 21.7066 0.800742 21.7086C0.717742 21.7916 0.657742 21.8886 0.609742 21.9916C0.595742 22.0216 0.587742 22.0536 0.576742 22.0856C0.546742 22.1716 0.528742 22.2596 0.522742 22.3516C0.521742 22.3726 0.510742 22.3906 0.510742 22.4116V41.4116C0.510742 41.9636 0.957742 42.4116 1.51074 42.4116H6.51074V47.4116C6.51074 47.9636 6.95774 48.4116 7.51074 48.4116H41.5107C42.0637 48.4116 42.5107 47.9636 42.5107 47.4116V42.4116H47.5107C48.0637 42.4116 48.5107 41.9636 48.5107 41.4116V22.4116C48.5107 22.3906 48.4997 22.3726 48.4987 22.3516ZM45.0967 21.4116H42.5107V18.8256L45.0967 21.4116ZM39.0967 9.41162H33.5107V3.82562L39.0967 9.41162ZM8.51074 2.41162H31.5107V10.4116C31.5107 10.9636 31.9577 11.4116 32.5107 11.4116H40.5107V16.4116V21.4116H8.51074V16.4116V2.41162ZM6.51074 18.8256V21.4116H3.92474L6.51074 18.8256ZM40.5107 46.4116H8.51074V42.4116H40.5107V46.4116ZM46.5107 40.4116H2.51074V23.4116H7.51074H41.5107H46.5107V40.4116Z" fill="black"/>
<path d="M14.673 33.2666V36.6064H13.548V28.0752H16.6945C17.6281 28.0752 18.3586 28.3135 18.8859 28.79C19.4172 29.2666 19.6828 29.8975 19.6828 30.6826C19.6828 31.5107 19.423 32.1494 18.9035 32.5986C18.3879 33.0439 17.6476 33.2666 16.6828 33.2666H14.673ZM14.673 32.3467H16.6945C17.2961 32.3467 17.757 32.2061 18.0773 31.9248C18.3976 31.6396 18.5578 31.2295 18.5578 30.6943C18.5578 30.1865 18.3976 29.7803 18.0773 29.4756C17.757 29.1709 17.3176 29.0127 16.759 29.001H14.673V32.3467ZM27.675 36.6064H26.5441L22.2492 30.0322V36.6064H21.1183V28.0752H22.2492L26.5558 34.6787V28.0752H27.675V36.6064ZM35.9719 35.4873C35.6828 35.9014 35.2785 36.2119 34.759 36.4189C34.2433 36.6221 33.6418 36.7236 32.9543 36.7236C32.259 36.7236 31.6418 36.5615 31.1027 36.2373C30.5637 35.9092 30.1457 35.4443 29.8488 34.8428C29.5558 34.2412 29.4055 33.5439 29.3976 32.751V32.0068C29.3976 30.7217 29.6965 29.7256 30.2941 29.0186C30.8957 28.3115 31.7394 27.958 32.8254 27.958C33.716 27.958 34.4328 28.1865 34.9758 28.6436C35.5187 29.0967 35.8508 29.7412 35.9719 30.5771H34.8469C34.6359 29.4482 33.964 28.8838 32.8312 28.8838C32.0773 28.8838 31.5051 29.1494 31.1144 29.6807C30.7277 30.208 30.5324 30.9736 30.5285 31.9775V32.6748C30.5285 33.6318 30.7473 34.3936 31.1848 34.96C31.6223 35.5225 32.214 35.8037 32.9601 35.8037C33.382 35.8037 33.7512 35.7568 34.0676 35.6631C34.384 35.5693 34.6457 35.4111 34.8527 35.1885V33.2725H32.8781V32.3584H35.9719V35.4873Z" fill="black"/>
</svg>
