<svg width="48" height="48" viewBox="0 0 48 48" fill="none" xmlns="http://www.w3.org/2000/svg">
<path d="M12 0C10.35 0 9 1.35 9 3V45C9 46.65 10.35 48 12 48H42C43.65 48 45 46.65 45 45V12L33 0H12Z" fill="#E2E5E7"/>
<path d="M36 12H45L33 0V9C33 10.65 34.35 12 36 12Z" fill="#B0B7BD"/>
<path d="M45 21L36 12H45V21Z" fill="#CAD1D8"/>
<path d="M39 39C39 39.825 38.325 40.5 37.5 40.5H4.5C3.675 40.5 3 39.825 3 39V24C3 23.175 3.675 22.5 4.5 22.5H37.5C38.325 22.5 39 23.175 39 24V39Z" fill="#E24075"/>
<path d="M37.5 40.5H9V42H37.5C38.325 42 39 41.325 39 40.5V39C39 39.825 38.325 40.5 37.5 40.5Z" fill="#CAD1D8"/>
<path d="M11.4865 35H10.0825V26.996H13.5985C14.4065 26.996 15.0425 27.236 15.5065 27.716C15.9785 28.196 16.2145 28.792 16.2145 29.504C16.2145 30.208 15.9785 30.804 15.5065 31.292C15.0425 31.772 14.4065 32.012 13.5985 32.012H11.4865V35ZM13.4065 30.776C13.8065 30.776 14.1345 30.66 14.3905 30.428C14.6465 30.196 14.7745 29.888 14.7745 29.504C14.7745 29.12 14.6465 28.812 14.3905 28.58C14.1345 28.348 13.8065 28.232 13.4065 28.232H11.4865V30.776H13.4065ZM24.3193 35H22.9633L18.7873 29.288V35H17.3833V26.996H18.8233L22.9153 32.552V26.996H24.3193V35ZM29.86 35.156C28.676 35.156 27.68 34.772 26.872 34.004C26.064 33.236 25.66 32.236 25.66 31.004C25.66 29.772 26.064 28.776 26.872 28.016C27.68 27.248 28.676 26.864 29.86 26.864C31.236 26.864 32.312 27.42 33.088 28.532L31.936 29.18C31.712 28.868 31.416 28.612 31.048 28.412C30.688 28.212 30.292 28.112 29.86 28.112C29.068 28.112 28.408 28.384 27.88 28.928C27.36 29.472 27.1 30.164 27.1 31.004C27.1 31.844 27.36 32.54 27.88 33.092C28.408 33.636 29.068 33.908 29.86 33.908C30.236 33.908 30.592 33.836 30.928 33.692C31.272 33.548 31.548 33.38 31.756 33.188V31.94H29.368V30.704H33.16V33.704C32.288 34.672 31.188 35.156 29.86 35.156Z" fill="white"/>
</svg>
