<svg width="49" height="48" viewBox="0 0 49 48" fill="none" xmlns="http://www.w3.org/2000/svg">
<path d="M48.3772 21.94C48.3712 21.849 48.3542 21.761 48.3232 21.674C48.3122 21.642 48.3042 21.611 48.2902 21.58C48.2422 21.477 48.1822 21.381 48.0992 21.297C48.0982 21.295 48.0972 21.294 48.0952 21.292L42.3892 15.586V10C42.3892 9.979 42.3782 9.96 42.3772 9.939C42.3712 9.85 42.3542 9.764 42.3252 9.68C42.3142 9.648 42.3062 9.618 42.2922 9.587C42.2432 9.481 42.1822 9.38 42.0962 9.294L33.0962 0.294C33.0112 0.209 32.9102 0.148 32.8052 0.099C32.7732 0.084 32.7402 0.075 32.7062 0.064C32.6252 0.037 32.5422 0.02 32.4572 0.014C32.4332 0.012 32.4122 0 32.3892 0H7.38916C6.83616 0 6.38916 0.448 6.38916 1V15.586L0.68316 21.292C0.68116 21.294 0.68116 21.295 0.67916 21.297C0.59616 21.38 0.53616 21.477 0.48816 21.58C0.47416 21.61 0.46616 21.642 0.45516 21.674C0.42516 21.76 0.40716 21.848 0.40116 21.94C0.40016 21.961 0.38916 21.979 0.38916 22V41C0.38916 41.552 0.83616 42 1.38916 42H6.38916V47C6.38916 47.552 6.83616 48 7.38916 48H41.3892C41.9422 48 42.3892 47.552 42.3892 47V42H47.3892C47.9422 42 48.3892 41.552 48.3892 41V22C48.3892 21.979 48.3782 21.961 48.3772 21.94ZM44.9752 21H42.3892V18.414L44.9752 21ZM38.9752 9H33.3892V3.414L38.9752 9ZM8.38916 2H31.3892V10C31.3892 10.552 31.8362 11 32.3892 11H40.3892V16V21H8.38916V16V2ZM6.38916 18.414V21H3.80316L6.38916 18.414ZM40.3892 46H8.38916V42H40.3892V46ZM46.3892 40H2.38916V23H7.38916H41.3892H46.3892V40Z" fill="black"/>
<path d="M15.5534 32.855V36.1948H14.4284V27.6636H17.5749C18.5085 27.6636 19.239 27.9019 19.7663 28.3784C20.2975 28.855 20.5632 29.4858 20.5632 30.271C20.5632 31.0991 20.3034 31.7378 19.7839 32.187C19.2682 32.6323 18.528 32.855 17.5632 32.855H15.5534ZM15.5534 31.9351H17.5749C18.1765 31.9351 18.6374 31.7944 18.9577 31.5132C19.278 31.228 19.4382 30.8179 19.4382 30.2827C19.4382 29.7749 19.278 29.3687 18.9577 29.064C18.6374 28.7593 18.1979 28.6011 17.6393 28.5894H15.5534V31.9351ZM23.1237 32.855V36.1948H21.9987V27.6636H25.1452C26.0788 27.6636 26.8093 27.9019 27.3366 28.3784C27.8679 28.855 28.1335 29.4858 28.1335 30.271C28.1335 31.0991 27.8737 31.7378 27.3542 32.187C26.8386 32.6323 26.0983 32.855 25.1335 32.855H23.1237ZM23.1237 31.9351H25.1452C25.7468 31.9351 26.2077 31.7944 26.528 31.5132C26.8483 31.228 27.0085 30.8179 27.0085 30.2827C27.0085 29.7749 26.8483 29.3687 26.528 29.064C26.2077 28.7593 25.7682 28.6011 25.2097 28.5894H23.1237V31.9351ZM35.4636 28.5894H32.7214V36.1948H31.6022V28.5894H28.8659V27.6636H35.4636V28.5894Z" fill="black"/>
</svg>
