<svg width="48" height="48" viewBox="0 0 48 48" fill="none" xmlns="http://www.w3.org/2000/svg">
<path d="M12 0C10.35 0 9 1.35 9 3V45C9 46.65 10.35 48 12 48H42C43.65 48 45 46.65 45 45V12L33 0H12Z" fill="#E2E5E7"/>
<path d="M36 12H45L33 0V9C33 10.65 34.35 12 36 12Z" fill="#B0B7BD"/>
<path d="M45 21L36 12H45V21Z" fill="#CAD1D8"/>
<path d="M39 39C39 39.825 38.325 40.5 37.5 40.5H4.5C3.675 40.5 3 39.825 3 39V24C3 23.175 3.675 22.5 4.5 22.5H37.5C38.325 22.5 39 23.175 39 24V39Z" fill="#CE4824"/>
<path d="M37.5 40.5H9V42H37.5C38.325 42 39 41.325 39 40.5V39C39 39.825 38.325 40.5 37.5 40.5Z" fill="#CAD1D8"/>
<path d="M12.4923 35H11.0883V26.996H14.6043C15.4123 26.996 16.0483 27.236 16.5123 27.716C16.9843 28.196 17.2203 28.792 17.2203 29.504C17.2203 30.208 16.9843 30.804 16.5123 31.292C16.0483 31.772 15.4123 32.012 14.6043 32.012H12.4923V35ZM14.4123 30.776C14.8123 30.776 15.1403 30.66 15.3963 30.428C15.6523 30.196 15.7803 29.888 15.7803 29.504C15.7803 29.12 15.6523 28.812 15.3963 28.58C15.1403 28.348 14.8123 28.232 14.4123 28.232H12.4923V30.776H14.4123ZM19.7931 35H18.3891V26.996H21.9051C22.7131 26.996 23.3491 27.236 23.8131 27.716C24.2851 28.196 24.5211 28.792 24.5211 29.504C24.5211 30.208 24.2851 30.804 23.8131 31.292C23.3491 31.772 22.7131 32.012 21.9051 32.012H19.7931V35ZM21.7131 30.776C22.1131 30.776 22.4411 30.66 22.6971 30.428C22.9531 30.196 23.0811 29.888 23.0811 29.504C23.0811 29.12 22.9531 28.812 22.6971 28.58C22.4411 28.348 22.1131 28.232 21.7131 28.232H19.7931V30.776H21.7131ZM29.0019 35H27.5979V28.232H25.1739V26.996H31.4259V28.232H29.0019V35Z" fill="white"/>
</svg>
