<svg width="48" height="48" viewBox="0 0 48 48" fill="none" xmlns="http://www.w3.org/2000/svg">
<path d="M12 0C10.35 0 9 1.35 9 3V45C9 46.65 10.35 48 12 48H42C43.65 48 45 46.65 45 45V12L33 0H12Z" fill="#E2E5E7"/>
<path d="M36 12H45L33 0V9C33 10.65 34.35 12 36 12Z" fill="#B0B7BD"/>
<path d="M45 21L36 12H45V21Z" fill="#CAD1D8"/>
<path d="M39 39C39 39.825 38.325 40.5 37.5 40.5H4.5C3.675 40.5 3 39.825 3 39V24C3 23.175 3.675 22.5 4.5 22.5H37.5C38.325 22.5 39 23.175 39 24V39Z" fill="#CE4824"/>
<path d="M37.5 40.5H9V42H37.5C38.325 42 39 41.325 39 40.5V39C39 39.825 38.325 40.5 37.5 40.5Z" fill="#CAD1D8"/>
<path d="M8.52553 35H7.12153V26.996H10.6375C11.4455 26.996 12.0815 27.236 12.5455 27.716C13.0175 28.196 13.2535 28.792 13.2535 29.504C13.2535 30.208 13.0175 30.804 12.5455 31.292C12.0815 31.772 11.4455 32.012 10.6375 32.012H8.52553V35ZM10.4455 30.776C10.8455 30.776 11.1735 30.66 11.4295 30.428C11.6855 30.196 11.8135 29.888 11.8135 29.504C11.8135 29.12 11.6855 28.812 11.4295 28.58C11.1735 28.348 10.8455 28.232 10.4455 28.232H8.52553V30.776H10.4455ZM15.8263 35H14.4223V26.996H17.9383C18.7463 26.996 19.3823 27.236 19.8463 27.716C20.3183 28.196 20.5543 28.792 20.5543 29.504C20.5543 30.208 20.3183 30.804 19.8463 31.292C19.3823 31.772 18.7463 32.012 17.9383 32.012H15.8263V35ZM17.7463 30.776C18.1463 30.776 18.4743 30.66 18.7303 30.428C18.9863 30.196 19.1143 29.888 19.1143 29.504C19.1143 29.12 18.9863 28.812 18.7303 28.58C18.4743 28.348 18.1463 28.232 17.7463 28.232H15.8263V30.776H17.7463ZM25.0351 35H23.6311V28.232H21.2071V26.996H27.4591V28.232H25.0351V35ZM35.6809 35H34.0009L31.7569 31.868L29.5129 35H27.8329L30.8329 30.896L28.0129 26.996H29.6929L31.7569 29.936L33.8089 26.996H35.5009L32.6929 30.884L35.6809 35Z" fill="white"/>
</svg>
