<svg width="48" height="48" viewBox="0 0 48 48" fill="none" xmlns="http://www.w3.org/2000/svg">
<path d="M12 0C10.35 0 9 1.35 9 3V45C9 46.65 10.35 48 12 48H42C43.65 48 45 46.65 45 45V12L33 0H12Z" fill="#E2E5E7"/>
<path d="M36 12H45L33 0V9C33 10.65 34.35 12 36 12Z" fill="#B0B7BD"/>
<path d="M45 21L36 12H45V21Z" fill="#CAD1D8"/>
<path d="M39 39C39 39.825 38.325 40.5 37.5 40.5H4.5C3.675 40.5 3 39.825 3 39V24C3 23.175 3.675 22.5 4.5 22.5H37.5C38.325 22.5 39 23.175 39 24V39Z" fill="#BC30D3"/>
<path d="M37.5 40.5H9V42H37.5C38.325 42 39 41.325 39 40.5V39C39 39.825 38.325 40.5 37.5 40.5Z" fill="#CAD1D8"/>
<path d="M16.4717 35H14.8517L13.0757 32.012H11.6837V35H10.2797V26.996H13.7957C14.5797 26.996 15.2117 27.228 15.6917 27.692C16.1717 28.156 16.4117 28.76 16.4117 29.504C16.4117 30.176 16.2277 30.716 15.8597 31.124C15.4917 31.524 15.0437 31.768 14.5157 31.856L16.4717 35ZM13.6037 30.776C14.0037 30.776 14.3317 30.66 14.5877 30.428C14.8437 30.196 14.9717 29.888 14.9717 29.504C14.9717 29.12 14.8437 28.812 14.5877 28.58C14.3317 28.348 14.0037 28.232 13.6037 28.232H11.6837V30.776H13.6037ZM25.0149 35H23.4189L22.8309 33.464H19.1589L18.5709 35H16.9749L20.1189 26.996H21.8709L25.0149 35ZM22.4349 32.228L20.9949 28.412L19.5549 32.228H22.4349ZM32.0811 35H30.4611L28.6851 32.012H27.2931V35H25.8891V26.996H29.4051C30.1891 26.996 30.8211 27.228 31.3011 27.692C31.7811 28.156 32.0211 28.76 32.0211 29.504C32.0211 30.176 31.8371 30.716 31.4691 31.124C31.1011 31.524 30.6531 31.768 30.1251 31.856L32.0811 35ZM29.2131 30.776C29.6131 30.776 29.9411 30.66 30.1971 30.428C30.4531 30.196 30.5811 29.888 30.5811 29.504C30.5811 29.12 30.4531 28.812 30.1971 28.58C29.9411 28.348 29.6131 28.232 29.2131 28.232H27.2931V30.776H29.2131Z" fill="white"/>
</svg>
