<svg width="49" height="48" viewBox="0 0 49 48" fill="none" xmlns="http://www.w3.org/2000/svg">
<path d="M48.1652 21.94C48.1592 21.849 48.1422 21.761 48.1112 21.674C48.1002 21.642 48.0922 21.611 48.0782 21.58C48.0302 21.477 47.9702 21.381 47.8872 21.297C47.8862 21.295 47.8852 21.294 47.8832 21.292L42.1772 15.586V10C42.1772 9.979 42.1662 9.96 42.1652 9.939C42.1592 9.85 42.1422 9.764 42.1132 9.68C42.1022 9.648 42.0942 9.618 42.0802 9.587C42.0312 9.481 41.9702 9.38 41.8842 9.294L32.8842 0.294C32.7992 0.209 32.6982 0.148 32.5932 0.099C32.5612 0.084 32.5282 0.075 32.4942 0.064C32.4132 0.037 32.3302 0.02 32.2452 0.014C32.2212 0.012 32.2002 0 32.1772 0H7.17725C6.62425 0 6.17725 0.448 6.17725 1V15.586L0.471246 21.292C0.469246 21.294 0.469246 21.295 0.467246 21.297C0.384246 21.38 0.324246 21.477 0.276246 21.58C0.262246 21.61 0.254246 21.642 0.243246 21.674C0.213246 21.76 0.195246 21.848 0.189246 21.94C0.188246 21.961 0.177246 21.979 0.177246 22V41C0.177246 41.552 0.624246 42 1.17725 42H6.17725V47C6.17725 47.552 6.62425 48 7.17725 48H41.1772C41.7302 48 42.1772 47.552 42.1772 47V42H47.1772C47.7302 42 48.1772 41.552 48.1772 41V22C48.1772 21.979 48.1662 21.961 48.1652 21.94ZM44.7632 21H42.1772V18.414L44.7632 21ZM38.7632 9H33.1772V3.414L38.7632 9ZM8.17725 2H31.1772V10C31.1772 10.552 31.6242 11 32.1772 11H40.1772V16V21H8.17725V16V2ZM6.17725 18.414V21H3.59125L6.17725 18.414ZM40.1772 46H8.17725V42H40.1772V46ZM46.1772 40H2.17725V23H7.17725H41.1772H46.1772V40Z" fill="black"/>
<path d="M17.1872 32.7437H15.1833V36.1948H14.0524V27.6636H16.8766C17.8376 27.6636 18.5759 27.8823 19.0915 28.3198C19.611 28.7573 19.8708 29.394 19.8708 30.23C19.8708 30.7612 19.7263 31.2241 19.4372 31.6187C19.152 32.0132 18.7536 32.3081 18.2419 32.5034L20.2458 36.1245V36.1948H19.0388L17.1872 32.7437ZM15.1833 31.8237H16.9118C17.4704 31.8237 17.9138 31.6792 18.2419 31.3901C18.5739 31.1011 18.7399 30.7144 18.7399 30.23C18.7399 29.7026 18.5817 29.2983 18.2653 29.0171C17.9528 28.7358 17.4997 28.5933 16.9059 28.5894H15.1833V31.8237ZM26.1638 33.9683H22.5895L21.7868 36.1948H20.6266L23.8845 27.6636H24.8688L28.1325 36.1948H26.9782L26.1638 33.9683ZM22.9294 33.0425H25.8298L24.3766 29.0522L22.9294 33.0425ZM32.4098 32.7437H30.4059V36.1948H29.2751V27.6636H32.0993C33.0602 27.6636 33.7985 27.8823 34.3141 28.3198C34.8337 28.7573 35.0934 29.394 35.0934 30.23C35.0934 30.7612 34.9489 31.2241 34.6598 31.6187C34.3747 32.0132 33.9763 32.3081 33.4645 32.5034L35.4684 36.1245V36.1948H34.2614L32.4098 32.7437ZM30.4059 31.8237H32.1345C32.6931 31.8237 33.1364 31.6792 33.4645 31.3901C33.7966 31.1011 33.9626 30.7144 33.9626 30.23C33.9626 29.7026 33.8044 29.2983 33.488 29.0171C33.1755 28.7358 32.7223 28.5933 32.1286 28.5894H30.4059V31.8237Z" fill="black"/>
</svg>
