<svg width="48" height="48" viewBox="0 0 48 48" fill="none" xmlns="http://www.w3.org/2000/svg">
<path d="M12 0C10.35 0 9 1.35 9 3V45C9 46.65 10.35 48 12 48H42C43.65 48 45 46.65 45 45V12L33 0H12Z" fill="#E2E5E7"/>
<path d="M36 12H45L33 0V9C33 10.65 34.35 12 36 12Z" fill="#B0B7BD"/>
<path d="M45 21L36 12H45V21Z" fill="#CAD1D8"/>
<path d="M39 39C39 39.825 38.325 40.5 37.5 40.5H4.5C3.675 40.5 3 39.825 3 39V24C3 23.175 3.675 22.5 4.5 22.5H37.5C38.325 22.5 39 23.175 39 24V39Z" fill="#976B95"/>
<path d="M37.5 40.5H9V42H37.5C38.325 42 39 41.325 39 40.5V39C39 39.825 38.325 40.5 37.5 40.5Z" fill="#CAD1D8"/>
<path d="M17.503 35H15.883L14.107 32.012H12.715V35H11.311V26.996H14.827C15.611 26.996 16.243 27.228 16.723 27.692C17.203 28.156 17.443 28.76 17.443 29.504C17.443 30.176 17.259 30.716 16.891 31.124C16.523 31.524 16.075 31.768 15.547 31.856L17.503 35ZM14.635 30.776C15.035 30.776 15.363 30.66 15.619 30.428C15.875 30.196 16.003 29.888 16.003 29.504C16.003 29.12 15.875 28.812 15.619 28.58C15.363 28.348 15.035 28.232 14.635 28.232H12.715V30.776H14.635ZM22.041 35H20.637V28.232H18.213V26.996H24.465V28.232H22.041V35ZM27.0587 35H25.6547V26.996H31.1387V28.232H27.0587V30.308H31.0547V31.544H27.0587V35Z" fill="white"/>
</svg>
