<svg width="48" height="48" viewBox="0 0 48 48" fill="none" xmlns="http://www.w3.org/2000/svg">
<path d="M12 0C10.35 0 9 1.35 9 3V45C9 46.65 10.35 48 12 48H42C43.65 48 45 46.65 45 45V12L33 0H12Z" fill="#E2E5E7"/>
<path d="M36 12H45L33 0V9C33 10.65 34.35 12 36 12Z" fill="#B0B7BD"/>
<path d="M45 21L36 12H45V21Z" fill="#CAD1D8"/>
<path d="M39 39C39 39.825 38.325 40.5 37.5 40.5H4.5C3.675 40.5 3 39.825 3 39V24C3 23.175 3.675 22.5 4.5 22.5H37.5C38.325 22.5 39 23.175 39 24V39Z" fill="#3970DB"/>
<path d="M37.5 40.5H9V42H37.5C38.325 42 39 41.325 39 40.5V39C39 39.825 38.325 40.5 37.5 40.5Z" fill="#CAD1D8"/>
<path d="M14.2714 35H12.8674V28.232H10.4434V26.996H16.6954V28.232H14.2714V35ZM24.9172 35H23.2372L20.9932 31.868L18.7492 35H17.0692L20.0692 30.896L17.2492 26.996H18.9292L20.9932 29.936L23.0452 26.996H24.7372L21.9292 30.884L24.9172 35ZM29.1308 35H27.7268V28.232H25.3028V26.996H31.5548V28.232H29.1308V35Z" fill="white"/>
</svg>
