<svg width="49" height="48" viewBox="0 0 49 48" fill="none" xmlns="http://www.w3.org/2000/svg">
<path d="M48.6843 21.94C48.6783 21.849 48.6613 21.761 48.6303 21.674C48.6193 21.642 48.6113 21.611 48.5973 21.58C48.5493 21.477 48.4893 21.381 48.4063 21.297C48.4053 21.295 48.4043 21.294 48.4023 21.292L42.6963 15.586V10C42.6963 9.979 42.6853 9.96 42.6843 9.939C42.6783 9.85 42.6613 9.764 42.6323 9.68C42.6213 9.648 42.6133 9.618 42.5993 9.587C42.5503 9.481 42.4893 9.38 42.4033 9.294L33.4033 0.294C33.3183 0.209 33.2173 0.148 33.1123 0.099C33.0803 0.084 33.0473 0.075 33.0133 0.064C32.9323 0.037 32.8493 0.02 32.7643 0.014C32.7403 0.012 32.7193 0 32.6963 0H7.69629C7.14329 0 6.69629 0.448 6.69629 1V15.586L0.990289 21.292C0.988289 21.294 0.988289 21.295 0.986289 21.297C0.903289 21.38 0.843289 21.477 0.795289 21.58C0.781289 21.61 0.773289 21.642 0.762289 21.674C0.732289 21.76 0.714289 21.848 0.708289 21.94C0.707289 21.961 0.696289 21.979 0.696289 22V41C0.696289 41.552 1.14329 42 1.69629 42H6.69629V47C6.69629 47.552 7.14329 48 7.69629 48H41.6963C42.2493 48 42.6963 47.552 42.6963 47V42H47.6963C48.2493 42 48.6963 41.552 48.6963 41V22C48.6963 21.979 48.6853 21.961 48.6843 21.94ZM45.2823 21H42.6963V18.414L45.2823 21ZM39.2823 9H33.6963V3.414L39.2823 9ZM8.69629 2H31.6963V10C31.6963 10.552 32.1433 11 32.6963 11H40.6963V16V21H8.69629V16V2ZM6.69629 18.414V21H4.11029L6.69629 18.414ZM40.6963 46H8.69629V42H40.6963V46ZM46.6963 40H2.69629V23H7.69629H41.6963H46.6963V40Z" fill="black"/>
<path d="M20.8586 28.5894H18.1164V36.1948H16.9973V28.5894H14.2609V27.6636H20.8586V28.5894ZM24.9074 30.9331L26.9523 27.6636H28.2765L25.5812 31.894L28.341 36.1948H27.0051L24.9074 32.8667L22.798 36.1948H21.468L24.2336 31.894L21.5324 27.6636H22.8508L24.9074 30.9331ZM35.5422 28.5894H32.8V36.1948H31.6808V28.5894H28.9445V27.6636H35.5422V28.5894Z" fill="black"/>
</svg>
