<svg width="49" height="49" viewBox="0 0 49 49" fill="none" xmlns="http://www.w3.org/2000/svg">
<path d="M48.1931 22.7071C48.1871 22.6161 48.1701 22.5281 48.1391 22.4411C48.1281 22.4091 48.1201 22.3781 48.1061 22.3471C48.0581 22.2441 47.9981 22.1481 47.9151 22.0641C47.9141 22.0621 47.9131 22.0611 47.9111 22.0591L42.2051 16.3531V10.7671C42.2051 10.7461 42.1941 10.7271 42.1931 10.7061C42.1871 10.6171 42.1701 10.5311 42.1411 10.4471C42.1301 10.4151 42.1221 10.3851 42.1081 10.3541C42.0591 10.2481 41.9981 10.1471 41.9121 10.0611L32.9121 1.06109C32.8271 0.97609 32.7261 0.91509 32.6211 0.86609C32.5891 0.85109 32.5561 0.84209 32.5221 0.83109C32.4411 0.80409 32.3581 0.78709 32.2731 0.78109C32.2491 0.77909 32.2281 0.76709 32.2051 0.76709H7.20508C6.65208 0.76709 6.20508 1.21509 6.20508 1.76709V16.3531L0.499078 22.0591C0.497078 22.0611 0.497078 22.0621 0.495078 22.0641C0.412078 22.1471 0.352078 22.2441 0.304078 22.3471C0.290078 22.3771 0.282078 22.4091 0.271078 22.4411C0.241078 22.5271 0.223078 22.6151 0.217078 22.7071C0.216078 22.7281 0.205078 22.7461 0.205078 22.7671V41.7671C0.205078 42.3191 0.652078 42.7671 1.20508 42.7671H6.20508V47.7671C6.20508 48.3191 6.65208 48.7671 7.20508 48.7671H41.2051C41.7581 48.7671 42.2051 48.3191 42.2051 47.7671V42.7671H47.2051C47.7581 42.7671 48.2051 42.3191 48.2051 41.7671V22.7671C48.2051 22.7461 48.1941 22.7281 48.1931 22.7071ZM44.7911 21.7671H42.2051V19.1811L44.7911 21.7671ZM38.7911 9.76709H33.2051V4.18109L38.7911 9.76709ZM8.20508 2.76709H31.2051V10.7671C31.2051 11.3191 31.6521 11.7671 32.2051 11.7671H40.2051V16.7671V21.7671H8.20508V16.7671V2.76709ZM6.20508 19.1811V21.7671H3.61908L6.20508 19.1811ZM40.2051 46.7671H8.20508V42.7671H40.2051V46.7671ZM46.2051 40.7671H2.20508V23.7671H7.20508H41.2051H46.2051V40.7671Z" fill="black"/>
<path d="M17.6252 31.7002L19.6701 28.4307H20.9943L18.299 32.6611L21.0588 36.9619H19.7228L17.6252 33.6338L15.5158 36.9619H14.1857L16.9514 32.6611L14.2502 28.4307H15.5685L17.6252 31.7002ZM24.8791 33.1592C23.9142 32.8818 23.2111 32.542 22.7697 32.1396C22.3322 31.7334 22.1135 31.2334 22.1135 30.6396C22.1135 29.9678 22.381 29.4131 22.9162 28.9756C23.4553 28.5342 24.1545 28.3135 25.0139 28.3135C25.5998 28.3135 26.1213 28.4268 26.5783 28.6533C27.0392 28.8799 27.3947 29.1924 27.6447 29.5908C27.8986 29.9893 28.0256 30.4248 28.0256 30.8975H26.8947C26.8947 30.3818 26.7306 29.9775 26.4025 29.6846C26.0744 29.3877 25.6115 29.2393 25.0139 29.2393C24.4592 29.2393 24.0256 29.3623 23.7131 29.6084C23.4045 29.8506 23.2502 30.1885 23.2502 30.6221C23.2502 30.9697 23.3967 31.2646 23.6896 31.5068C23.9865 31.7451 24.4885 31.9639 25.1955 32.1631C25.9064 32.3623 26.4611 32.583 26.8596 32.8252C27.2619 33.0635 27.5588 33.3428 27.7502 33.6631C27.9455 33.9834 28.0431 34.3604 28.0431 34.7939C28.0431 35.4854 27.7736 36.04 27.2346 36.458C26.6955 36.8721 25.9748 37.0791 25.0724 37.0791C24.4865 37.0791 23.9396 36.9678 23.4318 36.7451C22.924 36.5186 22.5314 36.21 22.2541 35.8193C21.9806 35.4287 21.8439 34.9854 21.8439 34.4893H22.9748C22.9748 35.0049 23.1642 35.4131 23.5431 35.7139C23.926 36.0107 24.4357 36.1592 25.0724 36.1592C25.6662 36.1592 26.1213 36.0381 26.4377 35.7959C26.7541 35.5537 26.9123 35.2236 26.9123 34.8057C26.9123 34.3877 26.7658 34.0654 26.4728 33.8389C26.1799 33.6084 25.6486 33.3818 24.8791 33.1592ZM30.6213 36.042H34.6642V36.9619H29.4904V28.4307H30.6213V36.042Z" fill="black"/>
</svg>
