<svg width="48" height="48" viewBox="0 0 48 48" fill="none" xmlns="http://www.w3.org/2000/svg">
<path d="M12 0C10.35 0 9 1.35 9 3V45C9 46.65 10.35 48 12 48H42C43.65 48 45 46.65 45 45V12L33 0H12Z" fill="#E2E5E7"/>
<path d="M36 12H45L33 0V9C33 10.65 34.35 12 36 12Z" fill="#B0B7BD"/>
<path d="M45 21L36 12H45V21Z" fill="#CAD1D8"/>
<path d="M39 39C39 39.825 38.325 40.5 37.5 40.5H4.5C3.675 40.5 3 39.825 3 39V24C3 23.175 3.675 22.5 4.5 22.5H37.5C38.325 22.5 39 23.175 39 24V39Z" fill="#107C41"/>
<path d="M37.5 40.5H9V42H37.5C38.325 42 39 41.325 39 40.5V39C39 39.825 38.325 40.5 37.5 40.5Z" fill="#CAD1D8"/>
<path d="M18.2551 35H16.5751L14.3311 31.868L12.0871 35H10.4071L13.4071 30.896L10.5871 26.996H12.2671L14.3311 29.936L16.3831 26.996H18.0751L15.2671 30.884L18.2551 35ZM24.0887 35H19.1567V26.996H20.5607V33.764H24.0887V35ZM28.0919 35.144C26.7159 35.144 25.6319 34.72 24.8399 33.872L25.6199 32.792C26.3079 33.528 27.1519 33.896 28.1519 33.896C28.6879 33.896 29.0879 33.788 29.3519 33.572C29.6239 33.356 29.7599 33.1 29.7599 32.804C29.7599 32.5 29.5999 32.26 29.2799 32.084C28.9599 31.9 28.5719 31.756 28.1159 31.652C27.6599 31.548 27.1999 31.424 26.7359 31.28C26.2799 31.136 25.8919 30.892 25.5719 30.548C25.2519 30.204 25.0919 29.76 25.0919 29.216C25.0919 28.544 25.3599 27.988 25.8959 27.548C26.4399 27.1 27.1439 26.876 28.0079 26.876C29.2399 26.876 30.2399 27.248 31.0079 27.992L30.2039 29.036C29.5959 28.428 28.8239 28.124 27.8879 28.124C27.4719 28.124 27.1399 28.216 26.8919 28.4C26.6519 28.576 26.5319 28.816 26.5319 29.12C26.5319 29.32 26.6159 29.488 26.7839 29.624C26.9599 29.76 27.1839 29.872 27.4559 29.96C27.7279 30.04 28.0279 30.12 28.3559 30.2C28.6919 30.28 29.0239 30.38 29.3519 30.5C29.6879 30.612 29.9919 30.752 30.2639 30.92C30.5359 31.088 30.7559 31.32 30.9239 31.616C31.0999 31.912 31.1879 32.264 31.1879 32.672C31.1879 33.392 30.9279 33.984 30.4079 34.448C29.8879 34.912 29.1159 35.144 28.0919 35.144Z" fill="white"/>
</svg>
