<svg width="48" height="48" viewBox="0 0 48 48" fill="none" xmlns="http://www.w3.org/2000/svg">
<path d="M12 0C10.35 0 9 1.35 9 3V45C9 46.65 10.35 48 12 48H42C43.65 48 45 46.65 45 45V12L33 0H12Z" fill="#E2E5E7"/>
<path d="M36 12H45L33 0V9C33 10.65 34.35 12 36 12Z" fill="#B0B7BD"/>
<path d="M45 21L36 12H45V21Z" fill="#CAD1D8"/>
<path d="M39 39C39 39.825 38.325 40.5 37.5 40.5H4.5C3.675 40.5 3 39.825 3 39V24C3 23.175 3.675 22.5 4.5 22.5H37.5C38.325 22.5 39 23.175 39 24V39Z" fill="#FFB023"/>
<path d="M37.5 40.5H9V42H37.5C38.325 42 39 41.325 39 40.5V39C39 39.825 38.325 40.5 37.5 40.5Z" fill="#CAD1D8"/>
<path d="M18.7917 35H12.7917V33.86L16.8837 28.232H12.7917V26.996H18.7077V28.136L14.6157 33.764H18.7917V35ZM21.5861 35H20.1821V26.996H21.5861V35ZM24.6915 35H23.2875V26.996H26.8035C27.6115 26.996 28.2475 27.236 28.7115 27.716C29.1835 28.196 29.4195 28.792 29.4195 29.504C29.4195 30.208 29.1835 30.804 28.7115 31.292C28.2475 31.772 27.6115 32.012 26.8035 32.012H24.6915V35ZM26.6115 30.776C27.0115 30.776 27.3395 30.66 27.5955 30.428C27.8515 30.196 27.9795 29.888 27.9795 29.504C27.9795 29.12 27.8515 28.812 27.5955 28.58C27.3395 28.348 27.0115 28.232 26.6115 28.232H24.6915V30.776H26.6115Z" fill="white"/>
</svg>
