<svg width="49" height="49" viewBox="0 0 49 49" fill="none" xmlns="http://www.w3.org/2000/svg">
<path d="M48.3772 21.9791C48.3712 21.8881 48.3542 21.8001 48.3232 21.7131C48.3122 21.6811 48.3042 21.6501 48.2902 21.6191C48.2422 21.5161 48.1822 21.4201 48.0992 21.3361C48.0982 21.3341 48.0972 21.3331 48.0952 21.3311L42.3892 15.6251V10.0391C42.3892 10.0181 42.3782 9.99906 42.3772 9.97806C42.3712 9.88906 42.3542 9.80306 42.3252 9.71906C42.3142 9.68706 42.3062 9.65706 42.2922 9.62606C42.2432 9.52006 42.1822 9.41906 42.0962 9.33306L33.0962 0.333062C33.0112 0.248062 32.9102 0.187063 32.8052 0.138062C32.7732 0.123062 32.7402 0.114063 32.7062 0.103063C32.6252 0.0760625 32.5422 0.0590625 32.4572 0.0530625C32.4332 0.0510625 32.4122 0.0390625 32.3892 0.0390625H7.38916C6.83616 0.0390625 6.38916 0.487063 6.38916 1.03906V15.6251L0.68316 21.3311C0.68116 21.3331 0.68116 21.3341 0.67916 21.3361C0.59616 21.4191 0.53616 21.5161 0.48816 21.6191C0.47416 21.6491 0.46616 21.6811 0.45516 21.7131C0.42516 21.7991 0.40716 21.8871 0.40116 21.9791C0.40016 22.0001 0.38916 22.0181 0.38916 22.0391V41.0391C0.38916 41.5911 0.83616 42.0391 1.38916 42.0391H6.38916V47.0391C6.38916 47.5911 6.83616 48.0391 7.38916 48.0391H41.3892C41.9422 48.0391 42.3892 47.5911 42.3892 47.0391V42.0391H47.3892C47.9422 42.0391 48.3892 41.5911 48.3892 41.0391V22.0391C48.3892 22.0181 48.3782 22.0001 48.3772 21.9791ZM44.9752 21.0391H42.3892V18.4531L44.9752 21.0391ZM38.9752 9.03906H33.3892V3.45306L38.9752 9.03906ZM8.38916 2.03906H31.3892V10.0391C31.3892 10.5911 31.8362 11.0391 32.3892 11.0391H40.3892V16.0391V21.0391H8.38916V16.0391V2.03906ZM6.38916 18.4531V21.0391H3.80316L6.38916 18.4531ZM40.3892 46.0391H8.38916V42.0391H40.3892V46.0391ZM46.3892 40.0391H2.38916V23.0391H7.38916H41.3892H46.3892V40.0391Z" fill="black"/>
<path d="M17.4108 35.314H22.2917V36.2339H16.0807V35.3901L20.7565 28.6284H16.1569V27.7026H22.1042V28.5288L17.4108 35.314ZM24.9577 36.2339H23.8327V27.7026H24.9577V36.2339ZM28.1452 32.894V36.2339H27.0202V27.7026H30.1667C31.1003 27.7026 31.8307 27.9409 32.3581 28.4175C32.8893 28.894 33.155 29.5249 33.155 30.3101C33.155 31.1382 32.8952 31.7769 32.3757 32.2261C31.86 32.6714 31.1198 32.894 30.155 32.894H28.1452ZM28.1452 31.9741H30.1667C30.7682 31.9741 31.2292 31.8335 31.5495 31.5522C31.8698 31.2671 32.03 30.8569 32.03 30.3218C32.03 29.814 31.8698 29.4077 31.5495 29.103C31.2292 28.7983 30.7897 28.6401 30.2311 28.6284H28.1452V31.9741Z" fill="black"/>
</svg>
