<?xml version="1.0" encoding="utf-8"?>
<!-- Generator: Adobe Illustrator 24.1.2, SVG Export Plug-In . SVG Version: 6.00 Build 0)  -->
<svg version="1.1" xmlns="http://www.w3.org/2000/svg" xmlns:xlink="http://www.w3.org/1999/xlink" x="0px" y="0px"
	 viewBox="0 0 595.28 841.89" style="enable-background:new 0 0 595.28 841.89;" xml:space="preserve">
<style type="text/css">
	.st0{display:none;}
	.st1{display:inline;fill:#F5E6D5;stroke:#D2D0BC;stroke-miterlimit:10;}
	.st2{display:inline;fill:#526149;stroke:#323D2D;stroke-miterlimit:10;}
	.st3{display:inline;fill:#423D36;stroke:#323D2D;stroke-miterlimit:10;}
	.st4{display:inline;fill:#242623;stroke:#0D0E0E;stroke-miterlimit:10;}
	.st5{display:inline;fill:#67725E;stroke:#323D2D;stroke-miterlimit:10;}
	.st6{fill:#929690;stroke:#525452;stroke-miterlimit:10;}
</style>
<g id="Слой_3" class="st0">
	<path class="st1" d="M358.55,427.16l6.1,11.51c0,0,0.55,16.22-0.72,22.04s-2.78,9.84-2.78,9.84l9.4,3.91l6.13-16.54l5.51-29.39"/>
	<polyline class="st2" points="318.26,645.63 293.54,459.52 296.49,448.68 290.74,435.26 288.46,420.21 295.6,410.47 300.26,382.55 
		336.89,382.55 341.96,389.61 354.41,437.09 344.94,640.32 	"/>
	<polyline class="st3" points="306.79,390.8 310.11,410.47 346.79,409.3 341.96,389.61 	"/>
	<path class="st1" d="M293.6,213.79l14.95,4.56c0,0-1.82,6.99-1.82,10.62s3,10.15,3.63,10.34c0.64,0.2,4.59,1.6,4.59,1.6v19.7
		l-21.36-0.39"/>
	<path class="st1" d="M293.64,228.01c3.9-0.06,15.91-9.66,15.91-9.66s12.57-9.62,13.55-19.79c0.98-10.17,2.95-29.6-1.58-36.75
		c-4.53-7.15-9.54-10.9-28.68-10.9"/>
	<path class="st4" d="M293.74,279.14"/>
	<path class="st5" d="M293.56,253.59c5.81,0.08,22.63-5.14,22.63-5.14l11.8,37.61l-34.2,2.56"/>
	<polyline class="st2" points="293.73,391.24 341.96,389.61 349.34,300.16 375.7,266.17 349.34,300.16 348.57,410.47 385.32,402.63 
		348.57,410.47 359.93,440.09 387.14,428.53 375.7,266.17 314.96,240.93 312.1,272.77 293.71,276.54 	"/>
	<path class="st4" d="M277.33,240.02"/>
	<path class="st2" d="M294.71,276.54c0,0,14.42-8.23,17.51-17.98c5.13-16.15,1.26-17.97,1.26-17.97s1.6-0.5,4.77,5.59
		c3.17,6.09,2.87,13.38,1.28,19.65c-1.59,6.28-7.3,16.27-7.3,16.27L294.71,276.54z"/>
	<polygon class="st2" points="312.1,288.62 312.1,323.16 340.01,323.16 340.01,299.22 312.1,299.22 340.01,299.22 340.01,288.7 	"/>
	<polyline class="st3" points="293.54,409.34 303.06,409.3 300.95,391.25 293.73,391.24 	"/>
	<polygon class="st2" points="352.07,487.42 322.52,494.16 325.72,507.97 351.4,501.62 325.72,507.97 332.88,535.18 349.98,532.12 	
		"/>
	<path class="st2" d="M346.79,409.3l3.38,13.8c0,0-2.09,5.43-5.61,5.43c-4.14,0-7.74-0.27-13.72-3.09
		c-5.45-2.57-9.46-14.96-9.46-14.96"/>
	<polygon class="st4" points="317.35,645 346.24,639.32 349.02,671.6 361.66,707.49 330.74,708.42 320.71,701.24 330.74,708.42 
		361.66,707.49 362.68,716.07 330.08,716.07 320.34,708.15 322.13,674.87 	"/>
	<path class="st1" d="M228.89,427.24l-6.1,11.51c0,0-0.55,16.22,0.72,22.04c1.27,5.82,2.78,9.84,2.78,9.84l-9.4,3.91l-6.13-16.54
		l-5.51-29.39"/>
	<polyline class="st2" points="269.18,645.7 296.49,448.68 290.74,435.26 288.46,420.21 295.6,410.47 292.34,409.41 287.18,382.63 
		250.55,382.63 245.49,389.68 233.03,437.16 242.5,640.39 	"/>
	<polyline class="st3" points="280.65,390.87 277.34,410.55 240.65,409.38 245.49,389.68 	"/>
	<path class="st1" d="M293.84,213.87l-14.95,4.56c0,0,1.82,6.99,1.82,10.62c0,3.64-3,10.15-3.63,10.34s-4.59,1.6-4.59,1.6v19.7
		l21.36-0.39"/>
	<path class="st1" d="M293.89,227.97c-3.9-0.06-16-9.55-16-9.55s-12.57-9.62-13.55-19.79s-2.95-29.6,1.58-36.75
		c4.53-7.15,8.78-10.98,27.93-10.98"/>
	<path class="st4" d="M293.7,279.22"/>
	<path class="st5" d="M294.56,253.59c-5.81,0.08-23.32-5.06-23.32-5.06l-11.8,37.61l34.2,2.56"/>
	<polyline class="st2" points="293.71,391.32 245.49,389.68 238.1,300.23 211.74,266.25 238.1,300.23 238.87,410.55 202.12,402.71 
		238.87,410.55 227.52,440.16 200.3,428.6 209.53,297.63 211.74,266.25 272.49,241 275.34,272.85 293.74,276.62 293.71,391.32 	"/>
	<path class="st4" d="M310.12,240.1"/>
	<path class="st2" d="M292.74,276.62c0,0-14.42-8.23-17.51-17.98c-5.13-16.15-1.26-17.97-1.26-17.97s-1.6-0.5-4.77,5.59
		c-3.17,6.09-2.87,13.38-1.28,19.65c1.59,6.28,7.3,16.27,7.3,16.27L292.74,276.62z"/>
	<polygon class="st2" points="275.34,288.7 275.34,323.24 247.44,323.24 247.44,299.3 275.34,299.3 247.44,299.3 247.44,288.77 	"/>
	<polyline class="st3" points="293.71,391.32 286.49,391.32 284.39,409.38 293.9,409.41 	"/>
	<polygon class="st2" points="235.38,487.5 264.92,494.23 261.72,508.05 236.04,501.69 261.72,508.05 254.56,535.25 237.46,532.2 	
		"/>
	<path class="st2" d="M240.65,409.38l-3.38,13.8c0,0,2.09,5.43,5.61,5.43c4.14,0,7.74-0.27,13.72-3.09
		c5.45-2.57,9.46-14.96,9.46-14.96"/>
	<polygon class="st4" points="270.09,645.08 241.2,639.39 238.43,671.68 225.78,707.57 256.7,708.5 266.73,701.31 256.7,708.5 
		225.78,707.57 224.76,716.14 257.36,716.14 267.1,708.23 265.32,674.94 	"/>
	<polyline class="st2" points="210.53,297.63 228.55,299.56 227.51,308.87 209.42,307.32 227.51,308.87 224.02,333.55 208,331.55 	
		"/>
	<polyline class="st2" points="377.11,298.58 359.09,300.51 360.12,309.81 378.21,308.26 360.12,309.81 363.61,334.5 379.64,332.5 	
		"/>
</g>
<g id="Слой_2" class="st0">
	<path class="st2" d="M260.06,179.29l65.4,0.78c0,0-21.86,9.17-31.86,9.04C283.6,188.98,260.06,179.29,260.06,179.29l5.73-28.39
		c0,0,17.59-2.92,28.06-2.58s28.6,2.58,28.6,2.58l4.94,28.93"/>
</g>
<g id="Слой_4">
	<path class="st6" d="M259.69,178.34c0,0-2.06-22,14.86-27.44s23.44-2.4,22.73,0c-0.72,2.4,1.99,6.67-9.68,8.45"/>
	<path class="st6" d="M327.39,178.78c0,0,2.06-22-14.86-27.44c-16.92-5.44-17.93-3.48-17.73,0c0.14,2.53-1.25,6.8,8.68,8.45"/>
	<path class="st6" d="M260.06,185.29c3.57,4.64,63.86,4.76,67.33,0.54c1.44-1.75,2.05-17.82-4.26-24.51
		c-4.65-4.94-15.67-4.99-29.56-4.99c-14.17,0-25.02,1.04-29.84,5.75C257.94,167.73,258.75,183.6,260.06,185.29z"/>
</g>
<g id="Слой_5" class="st0">
	<polyline class="st4" points="376.23,447.89 378.5,456.49 370.83,477.08 363.91,473.68 357.42,456.65 	"/>
	<polyline class="st4" points="211.68,447.89 209.41,456.49 217.08,477.08 224,473.68 230.49,456.65 	"/>
	<polygon class="st2" points="293.6,260.23 293.6,516.06 367.29,500.76 348.7,311.99 375.7,266.17 348.7,311.99 363.19,457.74 
		399.11,452.82 375.7,266.17 343.06,252.61 293.6,260.23 343.06,252.61 337.29,242.77 306.74,228.98 310.12,240.1 	"/>
	<rect x="304.72" y="309.88" class="st2" width="33.43" height="7.97"/>
	<line class="st2" x1="347.55" y1="412.95" x2="362.53" y2="450.81"/>
	<polyline class="st2" points="205.11,318.69 211.69,266.15 238.08,311.99 224.21,457.72 188.29,452.8 211.69,266.15 244.33,252.59 
		293.8,260.21 244.33,252.59 250.1,242.75 280.66,228.96 277.28,240.08 293.8,260.21 293.8,516.04 220.11,500.74 224.21,457.72 
		188.29,452.8 	"/>
	
		<rect x="249.24" y="309.86" transform="matrix(-1 -4.491442e-11 4.491442e-11 -1 531.9189 627.6799)" class="st2" width="33.43" height="7.97"/>
	<line class="st2" x1="239.85" y1="412.93" x2="224.86" y2="450.79"/>
	<polyline class="st2" points="379.04,302.37 361.17,305.39 362.76,314.62 380.73,311.97 362.76,314.62 367.74,339.04 
		383.62,336.08 	"/>
	<polyline class="st2" points="208.29,302.37 226.16,305.39 224.57,314.62 206.6,311.97 224.57,314.62 219.59,339.04 203.71,336.08 
			"/>
</g>
</svg>
