<svg width="128" height="128" xmlns="http://www.w3.org/2000/svg"><g clip-path="url(#clip0)"><path d="M96.189 102.824c.888 7.105 4.674 10.423 11.825 9.442l7.478-.982c7.151-.981 10.096-4.767 9.301-11.872l-8.039-69.875c-.841-7.104-4.674-10.47-11.825-9.441l-7.478.982c-2.244.28-4.067.888-5.469 1.729v-3.178c0-7.198-3.505-10.797-10.61-10.797H69.547c-7.197 0-10.656 3.599-10.656 10.797v18.508a16.571 16.571 0 0 0-3.552-.374H33.745c-1.309 0-2.524.14-3.599.374v-5.562c0-7.197-3.459-10.796-10.61-10.796h-5.889c-7.198 0-10.656 3.599-10.656 10.796v68.941c0 7.198 3.458 10.75 10.656 10.75h67.725c7.105 0 10.61-3.552 10.61-10.75V66.228l4.207 36.596zM70.295 15.89h10.283c2.944 0 4.346 1.495 4.346 4.253v80.812c0 2.757-1.402 4.253-4.346 4.253h-14.63V20.143c0-2.758 1.45-4.254 4.347-4.254zm32.811 85.532l-7.899-68.753c-.327-2.758.935-4.3 3.833-4.72l5.982-.749c2.898-.42 4.487 1.029 4.814 3.693l7.899 68.753c.328 2.804-.934 4.3-3.785 4.721l-6.077.794c-2.851.421-4.44-.934-4.767-3.739zm-88.71 3.786c-2.899 0-4.348-1.496-4.348-4.253V33.09c0-2.758 1.45-4.254 4.347-4.254h4.393c2.898 0 4.3 1.496 4.3 4.254v72.118h-8.693zm20.097-60.387h20.051c2.945 0 4.347 1.496 4.347 4.253v56.134H30.146V49.074c0-2.757 1.45-4.253 4.347-4.253zm2.851 11.965h14.49c1.635 0 2.85-1.262 2.85-2.898 0-1.589-1.215-2.85-2.85-2.85h-14.49c-1.73 0-2.945 1.261-2.945 2.85 0 1.636 1.216 2.898 2.945 2.898zm0 42.252h14.49c1.635 0 2.85-1.261 2.85-2.897 0-1.59-1.215-2.851-2.85-2.851h-14.49c-1.73 0-2.945 1.261-2.945 2.85 0 1.636 1.216 2.898 2.945 2.898z"/></g><defs><clipPath id="clip0"><path d="M0 0h128v128H0z"/></clipPath></defs></svg>