<svg width="128" height="128" xmlns="http://www.w3.org/2000/svg"><g clip-path="url(#clip0)"><path d="M64.682 24.292c-4.053-4.98-13.966-9.473-25.05-9.473-14.6 0-26.32 7.471-29.201 14.552v73.344c0 4.004 2.588 5.566 5.469 5.566 2.295 0 3.565-.683 4.98-1.758 3.419-2.832 9.083-6.103 18.752-6.103 9.766 0 16.31 3.222 19.141 5.762 1.368 1.123 3.028 2.099 5.909 2.099 2.88 0 4.444-1.123 5.86-2.099 3.076-2.344 9.424-5.762 19.141-5.762 9.717 0 15.48 3.32 18.751 6.103 1.465 1.075 2.735 1.758 4.981 1.758 2.881 0 5.469-1.562 5.469-5.566V29.371c-2.881-7.08-14.6-14.552-29.2-14.552-11.037 0-20.95 4.493-25.002 9.473zm-45.803 7.57c1.171-3.272 8.838-9.132 20.753-9.132 12.012 0 19.776 5.908 20.802 9.131v66.605c-5.079-3.76-12.648-5.908-20.802-5.908-8.155 0-15.724 2.148-20.753 6.104v-66.8zm91.557 0v66.8c-5.029-3.956-12.598-6.104-20.753-6.104s-15.675 2.148-20.802 5.908V31.861c1.026-3.223 8.839-9.131 20.802-9.131 11.964 0 19.581 5.86 20.753 9.131z"/></g><defs><clipPath id="clip0"><path d="M0 0h128v128H0z"/></clipPath></defs></svg>