<svg width="128" height="128" xmlns="http://www.w3.org/2000/svg"><path d="M29.718 112.963h71.346c10.916 0 16.348-5.432 16.348-16.191V33c0-10.76-5.432-16.191-16.348-16.191H29.719c-10.916 0-16.4 5.38-16.4 16.19v63.773c0 10.811 5.484 16.191 16.4 16.191zm-.783-8.409c-4.648 0-7.208-2.455-7.208-7.312V47.99c0-4.805 2.56-7.313 7.208-7.313h72.808c4.648 0 7.26 2.508 7.26 7.313v49.252c0 4.857-2.612 7.312-7.26 7.312H28.935zm26.22-45.126h3.08c1.829 0 2.456-.522 2.456-2.35v-3.082c0-1.828-.627-2.403-2.455-2.403h-3.082c-1.828 0-2.455.575-2.455 2.403v3.082c0 1.828.627 2.35 2.455 2.35zm17.392 0h3.029c1.828 0 2.455-.522 2.455-2.35v-3.082c0-1.828-.627-2.403-2.455-2.403h-3.03c-1.88 0-2.454.575-2.454 2.403v3.082c0 1.828.574 2.35 2.455 2.35zm17.34 0h3.081c1.828 0 2.403-.522 2.403-2.35v-3.082c0-1.828-.575-2.403-2.403-2.403h-3.081c-1.828 0-2.455.575-2.455 2.403v3.082c0 1.828.627 2.35 2.455 2.35zM37.814 76.507h3.082c1.828 0 2.402-.522 2.402-2.35v-3.082c0-1.828-.574-2.35-2.402-2.35h-3.082c-1.828 0-2.455.522-2.455 2.35v3.082c0 1.828.627 2.35 2.455 2.35zm17.34 0h3.082c1.828 0 2.455-.522 2.455-2.35v-3.082c0-1.828-.627-2.35-2.455-2.35h-3.082c-1.828 0-2.455.522-2.455 2.35v3.082c0 1.828.627 2.35 2.455 2.35zm17.393 0h3.029c1.828 0 2.455-.522 2.455-2.35v-3.082c0-1.828-.627-2.35-2.455-2.35h-3.03c-1.88 0-2.454.522-2.454 2.35v3.082c0 1.828.574 2.35 2.455 2.35zm17.34 0h3.081c1.828 0 2.403-.522 2.403-2.35v-3.082c0-1.828-.575-2.35-2.403-2.35h-3.081c-1.828 0-2.455.522-2.455 2.35v3.082c0 1.828.627 2.35 2.455 2.35zM37.814 93.638h3.082c1.828 0 2.402-.574 2.402-2.402v-3.082c0-1.828-.574-2.35-2.402-2.35h-3.082c-1.828 0-2.455.522-2.455 2.35v3.082c0 1.828.627 2.402 2.455 2.402zm17.34 0h3.082c1.828 0 2.455-.574 2.455-2.402v-3.082c0-1.828-.627-2.35-2.455-2.35h-3.082c-1.828 0-2.455.522-2.455 2.35v3.082c0 1.828.627 2.402 2.455 2.402zm17.393 0h3.029c1.828 0 2.455-.574 2.455-2.402v-3.082c0-1.828-.627-2.35-2.455-2.35h-3.03c-1.88 0-2.454.522-2.454 2.35v3.082c0 1.828.574 2.402 2.455 2.402z"/></svg>