<svg width="128" height="128" xmlns="http://www.w3.org/2000/svg"><g clip-path="url(#clip0)"><path d="M64.34 120.684c30.986 0 56.642-25.712 56.642-56.643 0-30.987-25.711-56.643-56.698-56.643-30.932 0-56.588 25.656-56.588 56.643 0 30.931 25.712 56.643 56.643 56.643zm0-9.441c-26.212 0-47.148-20.991-47.148-47.202s20.88-47.203 47.092-47.203c26.21 0 47.202 20.992 47.258 47.203.055 26.211-20.992 47.202-47.203 47.202zM45.346 87.586a4.32 4.32 0 0 0 3.221-1.388l15.716-15.827L80.11 86.198c.833.833 1.889 1.388 3.166 1.388 2.443 0 4.442-2.054 4.442-4.498 0-1.277-.444-2.332-1.333-3.165l-15.77-15.771L86.44 48.27c.944-.945 1.333-1.889 1.333-3.11 0-2.5-2-4.443-4.443-4.443-1.166 0-2.11.389-3.054 1.333L64.284 57.932 48.457 42.105c-.833-.888-1.833-1.277-3.11-1.277-2.443 0-4.442 1.888-4.442 4.387 0 1.222.5 2.277 1.332 3.11L58.01 64.152 42.237 79.978a4.232 4.232 0 0 0-1.332 3.11c0 2.444 1.999 4.498 4.442 4.498z"/></g><defs><clipPath id="clip0"><path d="M0 0h128v128H0z"/></clipPath></defs></svg>