<svg width="48" height="48" fill="none" xmlns="http://www.w3.org/2000/svg"><path d="M12 0c-1.65 0-3 1.35-3 3v42c0 1.65 1.35 3 3 3h30c1.65 0 3-1.35 3-3V12L33 0H12z" fill="#E2E5E7"/><path d="M36 12h9L33 0v9c0 1.65 1.35 3 3 3z" fill="#B0B7BD"/><path d="M45 21l-9-9h9v9z" fill="#CAD1D8"/><path d="M39 39c0 .825-.675 1.5-1.5 1.5h-33c-.825 0-1.5-.675-1.5-1.5V24c0-.825.675-1.5 1.5-1.5h33c.825 0 1.5.675 1.5 1.5v15z" fill="#7C4919"/><path d="M37.5 40.5H9V42h28.5c.825 0 1.5-.675 1.5-1.5V39c0 .825-.675 1.5-1.5 1.5z" fill="#CAD1D8"/><path d="M9.947 35H6.971v-8.004h2.976c1.24 0 2.248.372 3.024 1.116.776.744 1.164 1.708 1.164 2.892 0 1.176-.388 2.136-1.164 2.88-.768.744-1.776 1.116-3.024 1.116zm0-1.236c.84 0 1.508-.264 2.004-.792s.744-1.184.744-1.968c0-.808-.244-1.472-.732-1.992-.48-.52-1.152-.78-2.016-.78H8.375v5.532h1.572zm6.677 1.38c-.888 0-1.596-.28-2.124-.84l.648-1.068c.408.44.864.66 1.368.66.432 0 .772-.132 1.02-.396.256-.264.384-.616.384-1.056v-5.448h1.404v5.472c0 .88-.248 1.548-.744 2.004-.496.448-1.148.672-1.956.672zM25.09 35h-1.752l-3.144-8.004h1.596l2.424 6.48 2.424-6.48h1.596L25.09 35zm7.486.144c-1.136 0-2-.296-2.592-.888-.584-.592-.876-1.396-.876-2.412v-4.848h1.416v4.8c0 .648.176 1.16.528 1.536.36.376.868.564 1.524.564s1.16-.188 1.512-.564c.352-.376.528-.888.528-1.536v-4.8h1.416v4.836c0 1.024-.296 1.832-.888 2.424-.584.592-1.44.888-2.568.888z" fill="#fff"/></svg>