<svg width="48" height="48" fill="none" xmlns="http://www.w3.org/2000/svg"><path d="M12 0c-1.65 0-3 1.35-3 3v42c0 1.65 1.35 3 3 3h30c1.65 0 3-1.35 3-3V12L33 0H12z" fill="#E2E5E7"/><path d="M36 12h9L33 0v9c0 1.65 1.35 3 3 3z" fill="#B0B7BD"/><path d="M45 21l-9-9h9v9z" fill="#CAD1D8"/><path d="M39 39c0 .825-.675 1.5-1.5 1.5h-33c-.825 0-1.5-.675-1.5-1.5V24c0-.825.675-1.5 1.5-1.5h33c.825 0 1.5.675 1.5 1.5v15z" fill="#3970DB"/><path d="M37.5 40.5H9V42h28.5c.825 0 1.5-.675 1.5-1.5V39c0 .825-.675 1.5-1.5 1.5z" fill="#CAD1D8"/><path d="M11.89 35H8.915v-8.004h2.976c1.24 0 2.248.372 3.024 1.116.777.744 1.164 1.708 1.164 2.892 0 1.176-.387 2.136-1.163 2.88-.768.744-1.776 1.116-3.024 1.116zm0-1.236c.84 0 1.508-.264 2.005-.792.495-.528.744-1.184.744-1.968 0-.808-.244-1.472-.732-1.992-.48-.52-1.152-.78-2.017-.78h-1.572v5.532h1.572zm12.216.216c-.768.776-1.748 1.164-2.94 1.164s-2.172-.388-2.94-1.164c-.768-.784-1.152-1.776-1.152-2.976s.384-2.188 1.152-2.964c.768-.784 1.748-1.176 2.94-1.176s2.172.392 2.94 1.176c.768.776 1.152 1.764 1.152 2.964s-.384 2.192-1.152 2.976zm-2.94-.084c.792 0 1.432-.272 1.92-.816.488-.552.732-1.244.732-2.076 0-.84-.244-1.532-.732-2.076s-1.128-.816-1.92-.816c-.8 0-1.444.272-1.932.816-.48.544-.72 1.236-.72 2.076 0 .84.24 1.532.72 2.076.488.544 1.132.816 1.932.816zm9.284 1.248c-1.2 0-2.2-.384-3-1.152-.8-.776-1.2-1.772-1.2-2.988s.4-2.208 1.2-2.976c.8-.776 1.8-1.164 3-1.164 1.392 0 2.464.6 3.216 1.8l-1.2.612a2.32 2.32 0 0 0-.852-.84 2.223 2.223 0 0 0-1.164-.324c-.792 0-1.452.272-1.98.816-.52.544-.78 1.236-.78 2.076 0 .84.26 1.532.78 2.076.528.544 1.188.816 1.98.816.424 0 .816-.108 1.176-.324.36-.216.64-.496.84-.84l1.2.612c-.768 1.2-1.84 1.8-3.216 1.8z" fill="#fff"/></svg>