<svg width="48" height="48" fill="none" xmlns="http://www.w3.org/2000/svg"><path d="M12 0c-1.65 0-3 1.35-3 3v42c0 1.65 1.35 3 3 3h30c1.65 0 3-1.35 3-3V12L33 0H12z" fill="#E2E5E7"/><path d="M36 12h9L33 0v9c0 1.65 1.35 3 3 3z" fill="#B0B7BD"/><path d="M45 21l-9-9h9v9z" fill="#CAD1D8"/><path d="M39 39c0 .825-.675 1.5-1.5 1.5h-33c-.825 0-1.5-.675-1.5-1.5V24c0-.825.675-1.5 1.5-1.5h33c.825 0 1.5.675 1.5 1.5v15z" fill="#DB791E"/><path d="M37.5 40.5H9V42h28.5c.825 0 1.5-.675 1.5-1.5V39c0 .825-.675 1.5-1.5 1.5z" fill="#CAD1D8"/><path d="M12.52 35H7.036v-8.004h5.484v1.236H8.44v2.076h3.996v1.236H8.44v2.22h4.08V35zm2.845 0h-1.404v-8.004h3.516c.808 0 1.444.24 1.908.72.472.48.708 1.076.708 1.788 0 .704-.236 1.3-.708 1.788-.464.48-1.1.72-1.908.72h-2.112V35zm1.92-4.224c.4 0 .728-.116.984-.348.256-.232.384-.54.384-.924s-.128-.692-.384-.924c-.256-.232-.584-.348-.984-.348h-1.92v2.544h1.92zm7.445 4.368c-1.136 0-2-.296-2.592-.888-.584-.592-.876-1.396-.876-2.412v-4.848h1.416v4.8c0 .648.176 1.16.528 1.536.36.376.868.564 1.524.564s1.16-.188 1.512-.564c.352-.376.528-.888.528-1.536v-4.8h1.416v4.836c0 1.024-.296 1.832-.888 2.424-.584.592-1.44.888-2.568.888zM33.931 35h-4.044v-8.004h3.936c.712 0 1.268.196 1.668.588.408.384.612.868.612 1.452 0 .48-.136.888-.408 1.224a1.66 1.66 0 0 1-.984.612c.432.064.796.288 1.092.672.304.376.456.808.456 1.296 0 .64-.208 1.16-.624 1.56-.408.4-.976.6-1.704.6zm-.396-4.692c.352 0 .628-.096.828-.288.2-.192.3-.44.3-.744 0-.312-.1-.564-.3-.756-.2-.192-.476-.288-.828-.288h-2.244v2.076h2.244zm.06 3.456c.384 0 .684-.096.9-.288.216-.2.324-.476.324-.828 0-.312-.108-.572-.324-.78-.216-.216-.516-.324-.9-.324h-2.304v2.22h2.304z" fill="#fff"/></svg>