<svg width="48" height="48" fill="none" xmlns="http://www.w3.org/2000/svg"><path d="M12 0c-1.65 0-3 1.35-3 3v42c0 1.65 1.35 3 3 3h30c1.65 0 3-1.35 3-3V12L33 0H12z" fill="#E2E5E7"/><path d="M36 12h9L33 0v9c0 1.65 1.35 3 3 3z" fill="#B0B7BD"/><path d="M45 21l-9-9h9v9z" fill="#CAD1D8"/><path d="M39 39c0 .825-.675 1.5-1.5 1.5h-33c-.825 0-1.5-.675-1.5-1.5V24c0-.825.675-1.5 1.5-1.5h33c.825 0 1.5.675 1.5 1.5v15z" fill="#556A76"/><path d="M37.5 40.5H9V42h28.5c.825 0 1.5-.675 1.5-1.5V39c0 .825-.675 1.5-1.5 1.5z" fill="#CAD1D8"/><path d="M12.428 35h-1.404v-8.004h5.484v1.236h-4.08v2.076h3.996v1.236h-3.996V35zm9.378 0h-4.044v-8.004h3.936c.712 0 1.268.196 1.668.588.408.384.612.868.612 1.452 0 .48-.136.888-.408 1.224a1.66 1.66 0 0 1-.984.612c.432.064.796.288 1.092.672.304.376.456.808.456 1.296 0 .64-.208 1.16-.624 1.56-.408.4-.976.6-1.704.6zm-.396-4.692c.352 0 .628-.096.828-.288.2-.192.3-.44.3-.744 0-.312-.1-.564-.3-.756-.2-.192-.476-.288-.828-.288h-2.244v2.076h2.244zm.06 3.456c.384 0 .684-.096.9-.288.216-.2.324-.476.324-.828 0-.312-.108-.572-.324-.78-.216-.216-.516-.324-.9-.324h-2.304v2.22h2.304zM31.087 35h-5.796v-1.104c1.672-1.264 2.808-2.2 3.408-2.808.608-.616.912-1.196.912-1.74 0-.392-.144-.692-.432-.9-.28-.216-.62-.324-1.02-.324-.88 0-1.6.32-2.16.96l-.816-.924a3.288 3.288 0 0 1 1.296-.948 4.198 4.198 0 0 1 1.656-.336c.816 0 1.504.22 2.064.66.56.44.84 1.044.84 1.812 0 .688-.288 1.372-.864 2.052-.576.68-1.456 1.468-2.64 2.364h3.552V35z" fill="#fff"/></svg>