<svg width="129" height="128" xmlns="http://www.w3.org/2000/svg"><g clip-path="url(#clip0)"><path d="M103.283 66.749c11.633 0 21.489-9.73 21.489-21.49 0-11.76-9.729-21.49-21.489-21.49-11.803 0-21.49 9.73-21.49 21.49 0 11.845 9.687 21.49 21.49 21.49zm-78.979 35.788h70.772c7.572 0 12.014-4.4 12.014-13.114v-17.09c-1.692.296-4.611.338-6.811 0v16.794c0 4.357-2.41 6.6-6.599 6.6H24.39c-4.23 0-6.557-2.243-6.557-6.642V55.158H77.69c-.762-2.03-1.312-4.188-1.523-6.388H17.832V38.237c0-4.188 2.2-6.345 6.26-6.345h8.926c2.792 0 4.484.719 6.642 2.538l2.58 2.157c2.75 2.285 4.992 3.088 9.18 3.088h25.085c.508-2.41 1.1-4.441 2.285-6.81H53.197c-2.877 0-4.611-.677-6.726-2.496l-2.58-2.115c-2.793-2.37-4.95-3.13-9.138-3.13H22.697c-7.403 0-11.676 4.23-11.676 12.732v51.567c0 8.757 4.442 13.114 13.283 13.114zm78.937-56.009c-3.892 0-6.853-3.215-6.853-7.614 0-3.934 3.003-7.276 6.853-7.276 3.891 0 6.937 3.342 6.937 7.276 0 4.4-3.046 7.614-6.937 7.614zm.042 15.272c-6.176 0-11.041-3.173-12.437-6.092v-.211c1.396-2.623 5.71-5.542 12.437-5.542 6.726 0 11.041 2.919 12.394 5.584v.17c-1.396 2.96-6.218 6.09-12.394 6.09z"/></g><defs><clipPath id="clip0"><path transform="translate(.429)" d="M0 0h128v128H0z"/></clipPath></defs></svg>