<svg width="48" height="48" fill="none" xmlns="http://www.w3.org/2000/svg"><path d="M12 0c-1.65 0-3 1.35-3 3v42c0 1.65 1.35 3 3 3h30c1.65 0 3-1.35 3-3V12L33 0H12z" fill="#E2E5E7"/><path d="M36 12h9L33 0v9c0 1.65 1.35 3 3 3z" fill="#B0B7BD"/><path d="M45 21l-9-9h9v9z" fill="#CAD1D8"/><path d="M39 39c0 .825-.675 1.5-1.5 1.5h-33c-.825 0-1.5-.675-1.5-1.5V24c0-.825.675-1.5 1.5-1.5h33c.825 0 1.5.675 1.5 1.5v15z" fill="#F15642"/><path d="M37.5 40.5H9V42h28.5c.825 0 1.5-.675 1.5-1.5V39c0 .825-.675 1.5-1.5 1.5z" fill="#CAD1D8"/><path d="M12.477 35h-1.404v-8.004h3.516c.808 0 1.444.24 1.908.72.472.48.708 1.076.708 1.788 0 .704-.236 1.3-.708 1.788-.464.48-1.1.72-1.908.72h-2.112V35zm1.92-4.224c.4 0 .728-.116.984-.348.256-.232.384-.54.384-.924s-.128-.692-.384-.924c-.256-.232-.584-.348-.984-.348h-1.92v2.544h1.92zM21.349 35h-2.976v-8.004h2.976c1.24 0 2.248.372 3.024 1.116.776.744 1.165 1.708 1.165 2.892 0 1.176-.389 2.136-1.165 2.88-.768.744-1.776 1.116-3.024 1.116zm0-1.236c.84 0 1.509-.264 2.005-.792.495-.528.744-1.184.744-1.968 0-.808-.244-1.472-.732-1.992-.48-.52-1.152-.78-2.017-.78h-1.572v5.532h1.572zM28.297 35h-1.404v-8.004h5.484v1.236h-4.08v2.076h3.996v1.236h-3.996V35z" fill="#fff"/></svg>