<svg width="128" height="128" xmlns="http://www.w3.org/2000/svg"><g clip-path="url(#clip0)"><path d="M87.051 60.678c10.661 0 19.433-9.537 19.433-21.143 0-11.47-8.682-20.557-19.433-20.557-10.706 0-19.478 9.221-19.433 20.647 0 11.561 8.727 21.053 19.433 21.053zm-51.821.99c9.266 0 16.869-8.323 16.869-18.534 0-9.986-7.513-18.038-16.87-18.038-9.266 0-16.913 8.187-16.868 18.128 0 10.166 7.602 18.444 16.869 18.444zm51.821-7.783c-6.612 0-12.19-6.297-12.19-14.26-.046-7.827 5.487-13.855 12.19-13.855 6.703 0 12.19 5.938 12.19 13.765 0 7.963-5.577 14.35-12.19 14.35zm-51.821 1.08c-5.533 0-10.167-5.263-10.167-11.741 0-6.343 4.589-11.426 10.167-11.426 5.668 0 10.21 4.993 10.21 11.336 0 6.568-4.677 11.83-10.21 11.83zm-25.056 47.953h35.312c-2.16-1.215-3.779-3.914-3.464-6.658H9.094c-.945 0-1.35-.36-1.35-1.214 0-11.156 12.73-21.593 27.44-21.593 5.624 0 10.752 1.35 15.115 3.914 1.395-1.8 3.06-3.374 5.083-4.768-5.802-3.824-12.775-5.803-20.197-5.803-18.849 0-34.143 13.675-34.143 28.654 0 4.994 3.059 7.468 9.132 7.468zm48.582 0h56.5c7.512 0 11.066-2.249 11.066-7.198 0-11.785-14.89-28.834-39.316-28.834-24.426 0-39.316 17.049-39.316 28.834 0 4.949 3.599 7.198 11.066 7.198zm-2.159-6.793c-1.17 0-1.664-.315-1.664-1.26 0-7.377 11.426-21.187 32.073-21.187 20.648 0 32.074 13.81 32.074 21.188 0 .944-.495 1.26-1.665 1.26H56.597z"/></g><defs><clipPath id="clip0"><path d="M0 0h128v128H0z"/></clipPath></defs></svg>