<svg width="48" height="48" fill="none" xmlns="http://www.w3.org/2000/svg"><path d="M12 0c-1.65 0-3 1.35-3 3v42c0 1.65 1.35 3 3 3h30c1.65 0 3-1.35 3-3V12L33 0H12z" fill="#E2E5E7"/><path d="M36 12h9L33 0v9c0 1.65 1.35 3 3 3z" fill="#B0B7BD"/><path d="M45 21l-9-9h9v9z" fill="#CAD1D8"/><path d="M39 39c0 .825-.675 1.5-1.5 1.5h-33c-.825 0-1.5-.675-1.5-1.5V24c0-.825.675-1.5 1.5-1.5h33c.825 0 1.5.675 1.5 1.5v15z" fill="#E24075"/><path d="M37.5 40.5H9V42h28.5c.825 0 1.5-.675 1.5-1.5V39c0 .825-.675 1.5-1.5 1.5z" fill="#CAD1D8"/><path d="M11.486 35h-1.404v-8.004h3.516c.808 0 1.444.24 1.909.72.472.48.708 1.076.708 1.788 0 .704-.236 1.3-.708 1.788-.464.48-1.1.72-1.909.72h-2.112V35zm1.92-4.224c.4 0 .728-.116.984-.348.256-.232.384-.54.384-.924s-.127-.692-.383-.924c-.257-.232-.585-.348-.985-.348h-1.92v2.544h1.92zM24.32 35h-1.356l-4.176-5.712V35h-1.404v-8.004h1.44l4.092 5.556v-5.556h1.404V35zm5.541.156c-1.184 0-2.18-.384-2.988-1.152-.808-.768-1.212-1.768-1.212-3s.404-2.228 1.212-2.988c.808-.768 1.804-1.152 2.988-1.152 1.376 0 2.452.556 3.228 1.668l-1.152.648a2.6 2.6 0 0 0-.888-.768c-.36-.2-.756-.3-1.188-.3-.792 0-1.452.272-1.98.816-.52.544-.78 1.236-.78 2.076 0 .84.26 1.536.78 2.088.528.544 1.188.816 1.98.816.376 0 .732-.072 1.068-.216a2.81 2.81 0 0 0 .828-.504V31.94h-2.388v-1.236h3.792v3c-.872.968-1.972 1.452-3.3 1.452z" fill="#fff"/></svg>