<svg width="129" height="129" xmlns="http://www.w3.org/2000/svg"><path d="M100.212 31.112c-2.976 0-5.388 2.174-5.388 4.857 0 .964.316 1.86.854 2.616L75.765 57.176a5.788 5.788 0 0 0-2.942-.79c-.806 0-1.567.164-2.254.45l-7.236-10.099c.505-.74.8-1.607.8-2.538 0-2.682-2.411-4.856-5.386-4.856-2.976 0-5.388 2.174-5.388 4.856 0 .965.316 1.86.853 2.617L34.3 65.407a5.786 5.786 0 0 0-2.942-.79c-2.975 0-5.387 2.174-5.387 4.855 0 2.682 2.412 4.857 5.387 4.857 2.976 0 5.388-2.175 5.388-4.856 0-.996-.334-1.922-.904-2.693l19.881-18.562a5.781 5.781 0 0 0 3.024.837 5.79 5.79 0 0 0 2.934-.786l7.042 9.828c-.801.847-1.287 1.944-1.287 3.145 0 2.682 2.412 4.856 5.388 4.856s5.387-2.174 5.387-4.856a4.5 4.5 0 0 0-.904-2.692L97.19 39.988a5.781 5.781 0 0 0 3.023.837c2.976 0 5.387-2.175 5.387-4.857-.001-2.682-2.412-4.856-5.387-4.856zM31.358 73.093c-2.22 0-4.018-1.62-4.018-3.621 0-2 1.799-3.62 4.018-3.62s4.017 1.62 4.017 3.62-1.798 3.621-4.017 3.621zm23.37-28.895c0-2 1.799-3.62 4.018-3.62 2.22 0 4.017 1.62 4.017 3.62s-1.798 3.622-4.017 3.622c-2.219 0-4.018-1.621-4.018-3.622zm18.095 20.665c-2.219 0-4.017-1.621-4.017-3.621 0-.997.447-1.9 1.17-2.555l1.354-.788-.01-.014c.465-.17.971-.264 1.503-.264 2.22 0 4.017 1.621 4.017 3.62 0 2-1.798 3.622-4.017 3.622zm27.389-25.274c-2.22 0-4.018-1.621-4.018-3.621s1.799-3.621 4.018-3.621 4.016 1.621 4.016 3.62c.001 2.001-1.797 3.622-4.016 3.622z"/><path d="M14.929 19.312V86.13h101.71V19.312H14.929zm96.969 62.155h-92.23v-58.27h92.23v58.27zM119.346 90.402H11.911v8.546h107.435v-8.546zM103.616 128.666H93.272l-28.445-25.639h10.344l28.445 25.639zM26.04 128.666h10.342l28.444-25.639H54.483L26.04 128.666zM.827 11.543c0 2.575 2.316 4.662 5.172 4.662H7.6V6.88H6c-2.856 0-5.172 2.087-5.172 4.662zM123.655 6.881v9.323c2.857 0 5.172-2.087 5.172-4.661 0-2.575-2.315-4.662-5.172-4.662zM64.827.666c-3.808 0-6.895 2.783-6.895 6.216h-46.02v9.323h107.434V6.88H71.722c0-3.433-3.087-6.215-6.895-6.215z"/></svg>