<svg width="48" height="48" fill="none" xmlns="http://www.w3.org/2000/svg"><path d="M12 0c-1.65 0-3 1.35-3 3v42c0 1.65 1.35 3 3 3h30c1.65 0 3-1.35 3-3V12L33 0H12z" fill="#E2E5E7"/><path d="M36 12h9L33 0v9c0 1.65 1.35 3 3 3z" fill="#B0B7BD"/><path d="M45 21l-9-9h9v9z" fill="#CAD1D8"/><path d="M39 39c0 .825-.675 1.5-1.5 1.5h-33c-.825 0-1.5-.675-1.5-1.5V24c0-.825.675-1.5 1.5-1.5h33c.825 0 1.5.675 1.5 1.5v15z" fill="#BC30D3"/><path d="M37.5 40.5H9V42h28.5c.825 0 1.5-.675 1.5-1.5V39c0 .825-.675 1.5-1.5 1.5z" fill="#CAD1D8"/><path d="M16.472 35h-1.62l-1.776-2.988h-1.392V35H10.28v-8.004h3.516c.784 0 1.416.232 1.896.696.48.464.72 1.068.72 1.812 0 .672-.184 1.212-.552 1.62-.368.4-.816.644-1.344.732L16.472 35zm-2.868-4.224c.4 0 .728-.116.984-.348.256-.232.384-.54.384-.924s-.128-.692-.384-.924c-.256-.232-.584-.348-.984-.348h-1.92v2.544h1.92zM25.014 35H23.42l-.588-1.536H19.16L18.57 35h-1.596l3.144-8.004h1.752L25.015 35zm-2.58-2.772l-1.44-3.816-1.44 3.816h2.88zM32.082 35h-1.62l-1.776-2.988h-1.392V35H25.89v-8.004h3.516c.784 0 1.416.232 1.896.696.48.464.72 1.068.72 1.812 0 .672-.184 1.212-.552 1.62-.368.4-.816.644-1.344.732L32.081 35zm-2.868-4.224c.4 0 .728-.116.984-.348.256-.232.384-.54.384-.924s-.128-.692-.384-.924c-.256-.232-.584-.348-.984-.348h-1.92v2.544h1.92z" fill="#fff"/></svg>