<svg width="48" height="48" fill="none" xmlns="http://www.w3.org/2000/svg"><path d="M12 0c-1.65 0-3 1.35-3 3v42c0 1.65 1.35 3 3 3h30c1.65 0 3-1.35 3-3V12L33 0H12z" fill="#E2E5E7"/><path d="M36 12h9L33 0v9c0 1.65 1.35 3 3 3z" fill="#B0B7BD"/><path d="M45 21l-9-9h9v9z" fill="#CAD1D8"/><path d="M39 39c0 .825-.675 1.5-1.5 1.5h-33c-.825 0-1.5-.675-1.5-1.5V24c0-.825.675-1.5 1.5-1.5h33c.825 0 1.5.675 1.5 1.5v15z" fill="#976B95"/><path d="M37.5 40.5H9V42h28.5c.825 0 1.5-.675 1.5-1.5V39c0 .825-.675 1.5-1.5 1.5z" fill="#CAD1D8"/><path d="M17.503 35h-1.62l-1.776-2.988h-1.392V35h-1.404v-8.004h3.516c.784 0 1.416.232 1.896.696.48.464.72 1.068.72 1.812 0 .672-.184 1.212-.552 1.62-.368.4-.816.644-1.344.732L17.503 35zm-2.868-4.224c.4 0 .728-.116.984-.348.256-.232.384-.54.384-.924s-.128-.692-.384-.924c-.256-.232-.584-.348-.984-.348h-1.92v2.544h1.92zM22.041 35h-1.404v-6.768h-2.424v-1.236h6.252v1.236h-2.424V35zm5.018 0h-1.404v-8.004h5.484v1.236h-4.08v2.076h3.996v1.236h-3.996V35z" fill="#fff"/></svg>