<svg width="128" height="128" xmlns="http://www.w3.org/2000/svg"><g clip-path="url(#clip0)"><path d="M21.585 76.381c0 6.187 3.686 11.934 10.311 16.234v5.968c-2.15.746-3.466 2.676-3.466 5.309v11.539c0 3.467 2.238 5.704 5.704 5.704h1.185c3.466 0 5.703-2.237 5.703-5.704v-11.539c0-2.633-1.316-4.52-3.422-5.31v-2.895c6.977 3.071 15.971 4.914 26.502 4.914 25.887 0 42.56-11.1 42.56-24.22V55.759l12.812-5.88c2.852-1.316 4.3-3.86 4.3-6.493 0-2.589-1.448-5.134-4.3-6.45L76.255 17.19c-4.65-2.106-8.38-3.071-12.153-3.027-3.73-.044-7.46.921-12.154 3.027L8.773 36.936c-2.852 1.316-4.3 3.861-4.3 6.45 0 2.632 1.448 5.177 4.3 6.493l12.812 5.88v20.622zm42.517-10.662c-2.896 0-5.748-.746-9.478-2.457l-12.46-5.704 18.252-9.653c1.229.307 2.545.483 3.861.483 4.739 0 9.302-2.15 9.302-5.002 0-2.765-4.563-4.87-9.302-4.87-4.695 0-9.346 2.105-9.346 4.87 0 .482.132.921.395 1.36L36.065 54.794l-21.851-9.916c-.79-.352-1.14-.878-1.14-1.492 0-.57.35-1.097 1.14-1.448l40.41-18.385c3.73-1.71 6.582-2.457 9.478-2.457 2.94 0 5.748.746 9.52 2.457l40.411 18.385c.746.35 1.141.877 1.141 1.448 0 .614-.395 1.14-1.141 1.491l-40.41 18.385c-3.773 1.711-6.582 2.457-9.521 2.457zM28.649 76.381V58.962l3.247 1.492v23.43c-2.106-2.326-3.247-4.914-3.247-7.503zm35.453-3.73c3.773.044 7.503-.92 12.153-3.027l23.343-10.662v17.419c0 9.17-13.865 17.595-35.496 17.595-11.189 0-20.315-2.282-26.502-5.748V63.043l14.348 6.581c4.695 2.106 8.424 3.071 12.154 3.028z"/></g><defs><clipPath id="clip0"><path d="M0 0h128v128H0z"/></clipPath></defs></svg>