<svg width="48" height="48" fill="none" xmlns="http://www.w3.org/2000/svg"><path d="M12 0c-1.65 0-3 1.35-3 3v42c0 1.65 1.35 3 3 3h30c1.65 0 3-1.35 3-3V12L33 0H12z" fill="#E2E5E7"/><path d="M36 12h9L33 0v9c0 1.65 1.35 3 3 3z" fill="#B0B7BD"/><path d="M45 21l-9-9h9v9z" fill="#CAD1D8"/><path d="M39 39c0 .825-.675 1.5-1.5 1.5h-33c-.825 0-1.5-.675-1.5-1.5V24c0-.825.675-1.5 1.5-1.5h33c.825 0 1.5.675 1.5 1.5v15z" fill="#50BEE8"/><path d="M37.5 40.5H9V42h28.5c.825 0 1.5-.675 1.5-1.5V39c0 .825-.675 1.5-1.5 1.5z" fill="#CAD1D8"/><path d="M14.271 35h-1.404v-6.768h-2.424v-1.236h6.252v1.236h-2.424V35zm10.646 0h-1.68l-2.244-3.132L18.75 35h-1.68l3-4.104-2.82-3.9h1.68l2.064 2.94 2.052-2.94h1.692l-2.808 3.888L24.917 35zm4.214 0h-1.404v-6.768h-2.424v-1.236h6.252v1.236H29.13V35z" fill="#fff"/></svg>