<svg width="48" height="48" fill="none" xmlns="http://www.w3.org/2000/svg"><path d="M12 0c-1.65 0-3 1.35-3 3v42c0 1.65 1.35 3 3 3h30c1.65 0 3-1.35 3-3V12L33 0H12z" fill="#E2E5E7"/><path d="M36 12h9L33 0v9c0 1.65 1.35 3 3 3z" fill="#B0B7BD"/><path d="M45 21l-9-9h9v9z" fill="#CAD1D8"/><path d="M39 39c0 .825-.675 1.5-1.5 1.5h-33c-.825 0-1.5-.675-1.5-1.5V24c0-.825.675-1.5 1.5-1.5h33c.825 0 1.5.675 1.5 1.5v15z" fill="#107C41"/><path d="M37.5 40.5H9V42h28.5c.825 0 1.5-.675 1.5-1.5V39c0 .825-.675 1.5-1.5 1.5z" fill="#CAD1D8"/><path d="M18.255 35h-1.68l-2.244-3.132L12.087 35h-1.68l3-4.104-2.82-3.9h1.68l2.064 2.94 2.052-2.94h1.692l-2.808 3.888L18.255 35zm5.834 0h-4.932v-8.004h1.404v6.768h3.528V35zm4.003.144c-1.376 0-2.46-.424-3.252-1.272l.78-1.08c.688.736 1.532 1.104 2.532 1.104.536 0 .936-.108 1.2-.324.272-.216.408-.472.408-.768 0-.304-.16-.544-.48-.72a4.209 4.209 0 0 0-1.164-.432 18.64 18.64 0 0 1-1.38-.372 2.653 2.653 0 0 1-1.164-.732c-.32-.344-.48-.788-.48-1.332 0-.672.268-1.228.804-1.668.544-.448 1.248-.672 2.112-.672 1.232 0 2.232.372 3 1.116l-.804 1.044c-.608-.608-1.38-.912-2.316-.912-.416 0-.748.092-.996.276a.845.845 0 0 0-.36.72c0 .2.084.368.252.504.176.136.4.248.672.336.272.08.572.16.9.24.336.08.668.18.996.3.336.112.64.252.912.42.272.168.492.4.66.696.176.296.264.648.264 1.056 0 .72-.26 1.312-.78 1.776-.52.464-1.292.696-2.316.696z" fill="#fff"/></svg>