<svg width="48" height="48" fill="none" xmlns="http://www.w3.org/2000/svg"><path d="M12 0c-1.65 0-3 1.35-3 3v42c0 1.65 1.35 3 3 3h30c1.65 0 3-1.35 3-3V12L33 0H12z" fill="#E2E5E7"/><path d="M36 12h9L33 0v9c0 1.65 1.35 3 3 3z" fill="#B0B7BD"/><path d="M45 21l-9-9h9v9z" fill="#CAD1D8"/><path d="M39 39c0 .825-.675 1.5-1.5 1.5h-33c-.825 0-1.5-.675-1.5-1.5V24c0-.825.675-1.5 1.5-1.5h33c.825 0 1.5.675 1.5 1.5v15z" fill="#FFB023"/><path d="M37.5 40.5H9V42h28.5c.825 0 1.5-.675 1.5-1.5V39c0 .825-.675 1.5-1.5 1.5z" fill="#CAD1D8"/><path d="M18.792 35h-6v-1.14l4.092-5.628h-4.092v-1.236h5.916v1.14l-4.092 5.628h4.176V35zm2.794 0h-1.404v-8.004h1.404V35zm3.106 0h-1.404v-8.004h3.515c.808 0 1.444.24 1.909.72.471.48.707 1.076.707 1.788 0 .704-.236 1.3-.707 1.788-.465.48-1.1.72-1.909.72h-2.111V35zm1.92-4.224c.4 0 .728-.116.984-.348.256-.232.384-.54.384-.924s-.128-.692-.384-.924c-.256-.232-.584-.348-.985-.348h-1.92v2.544h1.92z" fill="#fff"/></svg>